<svg width="48" height="49" viewBox="0 0 48 49" fill="none" xmlns="http://www.w3.org/2000/svg">
<g clip-path="url(#clip0_84_3487)">
<mask id="mask0_84_3487" style="mask-type:luminance" maskUnits="userSpaceOnUse" x="0" y="0" width="48" height="49">
<path d="M0 0.0644569H48V48.0645H0V0.0644569Z" fill="white"/>
</mask>
<g mask="url(#mask0_84_3487)">
<path fill-rule="evenodd" clip-rule="evenodd" d="M18.9622 39.7158C17.9334 39.7159 17.0991 38.8829 17.0976 37.8544L17.0976 37.8514L17.0881 36.1548C17.0881 36.1543 17.0881 36.1538 17.0881 36.1533C17.0837 33.3848 16.0654 30.688 14.1583 28.6581L14.1583 28.6581C11.9135 26.2691 10.5299 23.0648 10.4993 19.536C10.4354 12.1459 16.4179 6.02083 23.8074 5.91795C27.746 5.86314 31.3029 7.49365 33.8053 10.1363C34.0723 10.4182 34.5173 10.4304 34.7993 10.1634C35.0813 9.89636 35.0934 9.45134 34.8264 9.16937C32.0651 6.25338 28.1357 4.45133 23.7879 4.51183C15.6239 4.6255 9.02253 11.3852 9.09309 19.5482C9.12684 23.4443 10.6561 26.9845 13.1334 29.6211C14.785 31.3789 15.6783 33.728 15.6818 36.1569L15.6818 36.1598L15.6914 37.8563C15.6914 37.8569 15.6914 37.8574 15.6914 37.858C15.6948 39.6619 17.1583 41.1222 18.9623 41.1221L29.0619 41.1212C30.8699 41.1211 32.3348 39.6541 32.3323 37.8461L32.3323 37.8433L32.3226 36.0813C32.3226 36.0808 32.3226 36.0802 32.3226 36.0797C32.3195 33.6937 33.1964 31.3845 34.8247 29.6655L34.3497 29.2156L34.8247 29.6655C37.3546 26.9948 38.9076 23.3865 38.9076 19.4168C38.9076 16.5352 38.089 13.8426 36.6717 11.561C36.4667 11.2312 36.0332 11.1299 35.7034 11.3348C35.3735 11.5397 35.2722 11.9733 35.4771 12.3031C36.7602 14.3684 37.5014 16.805 37.5014 19.4168C37.5014 23.0125 36.0962 26.2784 33.8038 28.6984C31.9148 30.6925 30.9124 33.3547 30.9164 36.0834L30.9164 36.0862L30.926 37.8481C30.926 37.8485 30.926 37.8488 30.926 37.8492C30.9268 38.8793 30.0921 39.7149 29.0618 39.715L18.9622 39.7158Z" fill="url(#paint0_linear_84_3487)"/>
<path fill-rule="evenodd" clip-rule="evenodd" d="M21.4218 48.0645C19.6841 48.0647 18.2774 46.6521 18.2849 44.9144L21.4218 48.0645ZM21.4218 48.0645L26.5663 48.0639C26.5663 48.0639 26.5663 48.0639 26.5663 48.0639C28.293 48.0638 29.6951 46.668 29.7026 44.9412L29.7222 40.4215C29.7231 40.2345 29.6493 40.0549 29.5174 39.9224C29.3854 39.7898 29.2061 39.7153 29.019 39.7154L19.0077 39.7164C18.6206 39.7164 18.3063 40.0293 18.3046 40.4164L18.2849 44.9144M19.6912 44.9205C19.6912 44.9205 19.6912 44.9205 19.6912 44.9205L19.7078 41.1226L28.3129 41.1217L28.2963 44.9351C28.2922 45.8875 27.5188 46.6576 26.5662 46.6576L21.4216 46.6582C20.4631 46.6583 19.6871 45.8791 19.6912 44.9205Z" fill="url(#paint1_linear_84_3487)"/>
<path fill-rule="evenodd" clip-rule="evenodd" d="M20.1928 23.8372C20.2152 24.2084 20.5228 24.498 20.8947 24.498H27.0981C27.4486 24.498 27.7455 24.24 27.7944 23.893C27.8678 23.3722 28.0249 22.6629 28.3806 21.8837L28.3806 21.8836C28.7538 21.0661 29.2164 20.4542 29.5945 20.034L29.5947 20.0338C29.8944 19.7005 29.9574 19.2128 29.7426 18.8126M21.1061 21.5463C21.3302 22.1095 21.4562 22.6371 21.5261 23.0918L21.1061 21.5463ZM21.5261 23.0918H26.509C26.6206 22.5692 26.802 21.9554 27.1013 21.2998C27.4964 20.4342 27.9753 19.7622 28.3926 19.2722C27.8413 18.2579 27.2067 17.1869 26.4763 16.0813L26.4763 16.0812C25.6459 14.8241 24.806 13.6955 23.9918 12.6905C23.1593 13.7027 22.2967 14.8528 21.4474 16.1472C20.7444 17.2188 20.1378 18.2562 19.6142 19.2368C20.0959 19.7381 20.6892 20.4989 21.106 21.5463M19.4983 19.4555C19.4983 19.4555 19.4983 19.4555 19.4983 19.4554L19.4983 19.4555ZM28.549 19.0936C28.5489 19.0937 28.5488 19.0938 28.5487 19.0939C28.5488 19.0938 28.5489 19.0937 28.549 19.0936ZM28.5035 19.4775C28.5035 19.4775 28.5035 19.4775 28.5035 19.4776L28.5035 19.4775ZM20.1928 23.8372C20.1656 23.384 20.0748 22.758 19.7995 22.0663L20.1928 23.8372ZM19.7995 22.0663L19.7995 22.0663L19.7995 22.0663ZM19.7995 22.0663C19.4226 21.1193 18.8638 20.4616 18.4535 20.0636L19.7995 22.0663ZM18.4533 20.0635C18.1085 19.7291 18.0366 19.2137 18.2537 18.8009L18.4533 20.0635ZM29.7426 18.8125C29.1472 17.703 28.4549 16.525 27.6496 15.3061C26.7662 13.9688 25.8724 12.7723 25.0081 11.7112M18.2538 18.8008C18.8226 17.7194 19.4895 16.568 20.2716 15.3758L18.2538 18.8008ZM22.9831 11.7034C22.0975 12.7737 21.1773 13.9955 20.2717 15.3758L20.2716 15.3758M25.0081 11.7112C24.4863 11.0707 23.5098 11.0673 22.9833 11.7032L22.9831 11.7034" fill="url(#paint2_linear_84_3487)"/>
<path fill-rule="evenodd" clip-rule="evenodd" d="M20.1952 26.6357C20.1952 27.0241 20.51 27.3389 20.8983 27.3389H27.1018C27.4901 27.3389 27.8049 27.0241 27.8049 26.6357V23.795C27.8049 23.4067 27.4901 23.0919 27.1018 23.0919H20.8983C20.51 23.0919 20.1952 23.4067 20.1952 23.795V26.6357ZM21.6014 25.9326V24.4981H26.3986V25.9326H21.6014Z" fill="url(#paint3_linear_84_3487)"/>
<path fill-rule="evenodd" clip-rule="evenodd" d="M27.8653 41.1211C28.2536 41.1211 28.5684 40.8063 28.5684 40.418V27.3895C28.5684 26.5839 27.9145 25.9335 27.1114 25.9335H20.8887C20.0856 25.9335 19.4316 26.5839 19.4316 27.3895V37.3808C19.4316 37.7691 19.7464 38.0839 20.1348 38.0839C20.5231 38.0839 20.8379 37.7691 20.8379 37.3808V27.3895C20.8379 27.363 20.8597 27.3398 20.8887 27.3398H27.1114C27.1404 27.3398 27.1622 27.363 27.1622 27.3895V40.418C27.1622 40.8063 27.477 41.1211 27.8653 41.1211Z" fill="url(#paint4_linear_84_3487)"/>
<path fill-rule="evenodd" clip-rule="evenodd" d="M24 20.3125C24.3883 20.3125 24.7031 19.9977 24.7031 19.6094V11.9325C24.7031 11.5441 24.3883 11.2293 24 11.2293C23.6117 11.2293 23.2969 11.5441 23.2969 11.9325V19.6094C23.2969 19.9977 23.6117 20.3125 24 20.3125Z" fill="url(#paint5_linear_84_3487)"/>
<path fill-rule="evenodd" clip-rule="evenodd" d="M19.4321 29.8926C19.4321 30.2809 19.7469 30.5957 20.1353 30.5957H27.8648C28.2532 30.5957 28.568 30.2809 28.568 29.8926C28.568 29.5043 28.2532 29.1895 27.8648 29.1895H20.1353C19.7469 29.1895 19.4321 29.5043 19.4321 29.8926Z" fill="url(#paint6_linear_84_3487)"/>
<path fill-rule="evenodd" clip-rule="evenodd" d="M23.9935 2.77148C24.3819 2.77148 24.6967 2.45668 24.6967 2.06836V0.768047C24.6967 0.379722 24.3819 0.0649219 23.9935 0.0649219C23.6052 0.0649219 23.2904 0.379722 23.2904 0.768047V2.06836C23.2904 2.45668 23.6052 2.77148 23.9935 2.77148Z" fill="url(#paint7_linear_84_3487)"/>
<path fill-rule="evenodd" clip-rule="evenodd" d="M40.5065 19.8301C40.5065 20.2184 40.8213 20.5332 41.2096 20.5332H42.4694C42.8577 20.5332 43.1725 20.2184 43.1725 19.8301C43.1725 19.4418 42.8577 19.127 42.4694 19.127H41.2096C40.8213 19.127 40.5065 19.4418 40.5065 19.8301Z" fill="url(#paint8_linear_84_3487)"/>
<path fill-rule="evenodd" clip-rule="evenodd" d="M4.82739 19.8301C4.82739 20.2184 5.14219 20.5332 5.53052 20.5332H6.79033C7.17866 20.5332 7.49345 20.2184 7.49345 19.8301C7.49345 19.4418 7.17866 19.127 6.79033 19.127H5.53052C5.14219 19.127 4.82739 19.4418 4.82739 19.8301Z" fill="url(#paint9_linear_84_3487)"/>
<path fill-rule="evenodd" clip-rule="evenodd" d="M35.6797 7.77548C35.9586 8.0457 36.4037 8.03867 36.6739 7.75978L37.5648 6.84028C37.835 6.56139 37.828 6.11625 37.5491 5.84603C37.2702 5.57582 36.8251 5.58285 36.5549 5.86174L35.664 6.78124C35.3938 7.06013 35.4008 7.50526 35.6797 7.77548Z" fill="url(#paint10_linear_84_3487)"/>
<path fill-rule="evenodd" clip-rule="evenodd" d="M10.4508 33.8136C10.7297 34.0838 11.1748 34.0768 11.445 33.7979L12.3359 32.8784C12.6062 32.5995 12.5991 32.1543 12.3202 31.8841C12.0414 31.6139 11.5962 31.6209 11.326 31.8998L10.4351 32.8193C10.1649 33.0982 10.1719 33.5434 10.4508 33.8136Z" fill="url(#paint11_linear_84_3487)"/>
<path fill-rule="evenodd" clip-rule="evenodd" d="M37.5491 33.8136C37.828 33.5434 37.835 33.0982 37.5648 32.8193L36.6739 31.8998C36.4037 31.6209 35.9586 31.6139 35.6797 31.8841C35.4008 32.1543 35.3938 32.5995 35.664 32.8784L36.5549 33.7979C36.8251 34.0768 37.2702 34.0838 37.5491 33.8136Z" fill="url(#paint12_linear_84_3487)"/>
<path fill-rule="evenodd" clip-rule="evenodd" d="M12.3202 7.77548C12.5991 7.50526 12.6062 7.06013 12.3359 6.78124L11.445 5.86174C11.1748 5.58285 10.7297 5.57582 10.4508 5.84603C10.1719 6.11625 10.1649 6.56139 10.4351 6.84028L11.326 7.75978C11.5962 8.03867 12.0414 8.0457 12.3202 7.77548Z" fill="url(#paint13_linear_84_3487)"/>
<path fill-rule="evenodd" clip-rule="evenodd" d="M18.285 43.6563C18.285 44.0446 18.5998 44.3594 18.9882 44.3594H26.2887C26.677 44.3594 26.9918 44.0446 26.9918 43.6563C26.9918 43.2679 26.677 42.9531 26.2887 42.9531H18.9882C18.5998 42.9531 18.285 43.2679 18.285 43.6563Z" fill="url(#paint14_linear_84_3487)"/>
</g>
</g>
<defs>
<linearGradient id="paint0_linear_84_3487" x1="9.09253" y1="22.8162" x2="38.9076" y2="22.8162" gradientUnits="userSpaceOnUse">
<stop stop-color="#0CBAF1"/>
<stop offset="1" stop-color="#E95CE9"/>
</linearGradient>
<linearGradient id="paint1_linear_84_3487" x1="18.2849" y1="43.8899" x2="29.7222" y2="43.8899" gradientUnits="userSpaceOnUse">
<stop stop-color="#0CBAF1"/>
<stop offset="1" stop-color="#E95CE9"/>
</linearGradient>
<linearGradient id="paint2_linear_84_3487" x1="18.1305" y1="17.8633" x2="29.8696" y2="17.8633" gradientUnits="userSpaceOnUse">
<stop stop-color="#0CBAF1"/>
<stop offset="1" stop-color="#E95CE9"/>
</linearGradient>
<linearGradient id="paint3_linear_84_3487" x1="20.1952" y1="25.2154" x2="27.8049" y2="25.2154" gradientUnits="userSpaceOnUse">
<stop stop-color="#0CBAF1"/>
<stop offset="1" stop-color="#E95CE9"/>
</linearGradient>
<linearGradient id="paint4_linear_84_3487" x1="19.4316" y1="33.5273" x2="28.5684" y2="33.5273" gradientUnits="userSpaceOnUse">
<stop stop-color="#0CBAF1"/>
<stop offset="1" stop-color="#E95CE9"/>
</linearGradient>
<linearGradient id="paint5_linear_84_3487" x1="23.2969" y1="15.7709" x2="24.7031" y2="15.7709" gradientUnits="userSpaceOnUse">
<stop stop-color="#0CBAF1"/>
<stop offset="1" stop-color="#E95CE9"/>
</linearGradient>
<linearGradient id="paint6_linear_84_3487" x1="19.4321" y1="29.8926" x2="28.568" y2="29.8926" gradientUnits="userSpaceOnUse">
<stop stop-color="#0CBAF1"/>
<stop offset="1" stop-color="#E95CE9"/>
</linearGradient>
<linearGradient id="paint7_linear_84_3487" x1="23.2904" y1="1.4182" x2="24.6967" y2="1.4182" gradientUnits="userSpaceOnUse">
<stop stop-color="#0CBAF1"/>
<stop offset="1" stop-color="#E95CE9"/>
</linearGradient>
<linearGradient id="paint8_linear_84_3487" x1="40.5065" y1="19.8301" x2="43.1725" y2="19.8301" gradientUnits="userSpaceOnUse">
<stop stop-color="#0CBAF1"/>
<stop offset="1" stop-color="#E95CE9"/>
</linearGradient>
<linearGradient id="paint9_linear_84_3487" x1="4.82739" y1="19.8301" x2="7.49345" y2="19.8301" gradientUnits="userSpaceOnUse">
<stop stop-color="#0CBAF1"/>
<stop offset="1" stop-color="#E95CE9"/>
</linearGradient>
<linearGradient id="paint10_linear_84_3487" x1="35.4658" y1="6.81076" x2="37.763" y2="6.81076" gradientUnits="userSpaceOnUse">
<stop stop-color="#0CBAF1"/>
<stop offset="1" stop-color="#E95CE9"/>
</linearGradient>
<linearGradient id="paint11_linear_84_3487" x1="10.2369" y1="32.8488" x2="12.5341" y2="32.8488" gradientUnits="userSpaceOnUse">
<stop stop-color="#0CBAF1"/>
<stop offset="1" stop-color="#E95CE9"/>
</linearGradient>
<linearGradient id="paint12_linear_84_3487" x1="35.4658" y1="32.8488" x2="37.763" y2="32.8488" gradientUnits="userSpaceOnUse">
<stop stop-color="#0CBAF1"/>
<stop offset="1" stop-color="#E95CE9"/>
</linearGradient>
<linearGradient id="paint13_linear_84_3487" x1="10.2369" y1="6.81076" x2="12.5341" y2="6.81076" gradientUnits="userSpaceOnUse">
<stop stop-color="#0CBAF1"/>
<stop offset="1" stop-color="#E95CE9"/>
</linearGradient>
<linearGradient id="paint14_linear_84_3487" x1="18.285" y1="43.6563" x2="26.9918" y2="43.6563" gradientUnits="userSpaceOnUse">
<stop stop-color="#0CBAF1"/>
<stop offset="1" stop-color="#E95CE9"/>
</linearGradient>
<clipPath id="clip0_84_3487">
<rect width="48" height="48" fill="white" transform="translate(0 0.0644531)"/>
</clipPath>
</defs>
</svg>
