<svg width="48" height="49" viewBox="0 0 48 49" fill="none" xmlns="http://www.w3.org/2000/svg">
<g clip-path="url(#clip0_84_3575)">
<mask id="mask0_84_3575" style="mask-type:luminance" maskUnits="userSpaceOnUse" x="0" y="0" width="48" height="49">
<path d="M0 0.0644569H48V48.0645H0V0.0644569Z" fill="white"/>
</mask>
<g mask="url(#mask0_84_3575)">
<path fill-rule="evenodd" clip-rule="evenodd" d="M7.34985 6.70901C7.34985 8.4977 8.80984 9.95801 10.5987 9.95801C10.987 9.95801 11.3018 9.64321 11.3018 9.25488C11.3018 8.86656 10.987 8.55176 10.5987 8.55176C9.58662 8.55176 8.7561 7.72119 8.7561 6.70901V3.31273C8.7561 2.30055 9.58662 1.46998 10.5987 1.46998C11.614 1.46998 12.444 2.30107 12.444 3.31273V5.01082C12.444 5.39915 12.7588 5.71395 13.1472 5.71395C13.5355 5.71395 13.8503 5.39915 13.8503 5.01082V3.31273C13.8503 1.52351 12.3897 0.0637274 10.5987 0.0637274C8.80984 0.0637274 7.34985 1.52403 7.34985 3.31273V6.70901Z" fill="url(#paint0_linear_84_3575)"/>
<path fill-rule="evenodd" clip-rule="evenodd" d="M16.5045 6.70901C16.5045 8.49774 17.9646 9.95801 19.7534 9.95801C20.1417 9.95801 20.4565 9.64321 20.4565 9.25488C20.4565 8.86656 20.1417 8.55176 19.7534 8.55176C18.7413 8.55176 17.9108 7.72115 17.9108 6.70901V3.31273C17.9108 2.30058 18.7413 1.46998 19.7534 1.46998C20.7687 1.46998 21.5988 2.30107 21.5988 3.31273V5.01082C21.5988 5.39915 21.9136 5.71395 22.3019 5.71395C22.6902 5.71395 23.005 5.39915 23.005 5.01082V3.31273C23.005 1.52351 21.5444 0.0637274 19.7534 0.0637274C17.9646 0.0637274 16.5045 1.524 16.5045 3.31273V6.70901Z" fill="url(#paint1_linear_84_3575)"/>
<path fill-rule="evenodd" clip-rule="evenodd" d="M25.6593 6.70901C25.6593 8.49774 27.1194 9.95801 28.9082 9.95801C29.2965 9.95801 29.6113 9.64321 29.6113 9.25488C29.6113 8.86656 29.2965 8.55176 28.9082 8.55176C27.8961 8.55176 27.0656 7.72115 27.0656 6.70901V3.31273C27.0656 2.30058 27.8961 1.46998 28.9082 1.46998C29.9235 1.46998 30.7536 2.30107 30.7536 3.31273V5.01082C30.7536 5.39915 31.0684 5.71395 31.4567 5.71395C31.845 5.71395 32.1598 5.39915 32.1598 5.01082V3.31273C32.1598 1.52351 30.6992 0.0637274 28.9082 0.0637274C27.1194 0.0637274 25.6593 1.524 25.6593 3.31273V6.70901Z" fill="url(#paint2_linear_84_3575)"/>
<path fill-rule="evenodd" clip-rule="evenodd" d="M34.8141 6.70901C34.8141 8.49822 36.2747 9.95801 38.0657 9.95801C38.454 9.95801 38.7688 9.64321 38.7688 9.25488C38.7688 8.86656 38.454 8.55176 38.0657 8.55176C37.0504 8.55176 36.2203 7.72067 36.2203 6.70901V3.31273C36.2203 2.30107 37.0504 1.46998 38.0657 1.46998C39.0778 1.46998 39.9084 2.30058 39.9084 3.31273V5.01082C39.9084 5.39915 40.2232 5.71395 40.6115 5.71395C40.9998 5.71395 41.3146 5.39915 41.3146 5.01082V3.31273C41.3146 1.524 39.8545 0.0637274 38.0657 0.0637274C36.2747 0.0637274 34.8141 1.52351 34.8141 3.31273V6.70901Z" fill="url(#paint3_linear_84_3575)"/>
<path fill-rule="evenodd" clip-rule="evenodd" d="M31.9893 38.1596C32.2322 37.8567 32.1836 37.4141 31.8807 37.1712L15.0539 23.6764C14.751 23.4335 14.3085 23.4821 14.0655 23.785C13.8226 24.088 13.8712 24.5305 14.1741 24.7735L31.0009 38.2682C31.3038 38.5112 31.7463 38.4625 31.9893 38.1596Z" fill="url(#paint4_linear_84_3575)"/>
<path fill-rule="evenodd" clip-rule="evenodd" d="M26.6083 25.7966C26.9113 26.0395 27.3539 25.9908 27.5967 25.6878L30.217 22.4191C30.4598 22.1161 30.4111 21.6736 30.1081 21.4307C29.8051 21.1878 29.3626 21.2366 29.1197 21.5396L26.4995 24.8082C26.2566 25.1112 26.3054 25.5538 26.6083 25.7966Z" fill="url(#paint5_linear_84_3575)"/>
<path fill-rule="evenodd" clip-rule="evenodd" d="M21.5549 26.7658C21.8474 27.0213 22.2916 26.9914 22.5471 26.699C23.4762 25.6356 24.5944 24.2697 25.4497 22.6314C25.6294 22.2871 25.4961 21.8624 25.1518 21.6827C24.8076 21.5029 24.3829 21.6363 24.2031 21.9805C23.4269 23.4674 22.398 24.7324 21.4881 25.7737C21.2326 26.0661 21.2625 26.5103 21.5549 26.7658Z" fill="url(#paint6_linear_84_3575)"/>
<path fill-rule="evenodd" clip-rule="evenodd" d="M26.7591 30.9385C27.072 31.1685 27.5121 31.1014 27.7421 30.7885C28.5602 29.6758 29.5727 28.3941 30.854 27.3175C31.1513 27.0677 31.1898 26.6241 30.94 26.3268C30.6902 26.0295 30.2467 25.991 29.9494 26.2408C28.5362 27.4283 27.4438 28.8201 26.6091 29.9555C26.3791 30.2684 26.4462 30.7085 26.7591 30.9385Z" fill="url(#paint7_linear_84_3575)"/>
<path fill-rule="evenodd" clip-rule="evenodd" d="M30.0132 33.5498C30.3298 33.7746 30.7688 33.7002 30.9936 33.3836C32.0976 31.829 33.696 29.9525 36.5897 29.8148C36.9776 29.7964 37.2771 29.467 37.2586 29.0791C37.2402 28.6912 36.9108 28.3917 36.5229 28.4102C32.9377 28.5808 30.9964 30.951 29.8471 32.5694C29.6222 32.886 29.6966 33.3249 30.0132 33.5498Z" fill="url(#paint8_linear_84_3575)"/>
<path fill-rule="evenodd" clip-rule="evenodd" d="M19.3892 23.8193C19.7231 24.0176 20.1545 23.9076 20.3528 23.5737C20.7822 22.8504 21.3781 21.6773 21.1857 19.9785C21.142 19.5926 20.7937 19.3153 20.4079 19.359C20.022 19.4027 19.7446 19.7509 19.7883 20.1367C19.9306 21.3931 19.5061 22.245 19.1436 22.8558C18.9453 23.1897 19.0553 23.6211 19.3892 23.8193Z" fill="url(#paint9_linear_84_3575)"/>
<path fill-rule="evenodd" clip-rule="evenodd" d="M10.4925 48.038C10.769 47.9899 11.0682 47.8759 11.371 47.7365C11.3856 47.7298 11.3999 47.7226 11.414 47.7149L30.4836 37.3003C30.6899 37.1876 30.8263 36.9792 30.847 36.745C30.8677 36.5108 30.77 36.2818 30.5866 36.1347L16.3482 24.7129C16.1648 24.5657 15.92 24.52 15.6959 24.591C15.4718 24.662 15.2979 24.8403 15.2327 25.0662L9.20824 45.9247C9.20383 45.94 9.19993 45.9555 9.19656 45.971C9.12296 46.3109 9.07662 46.6358 9.09153 46.9212C9.10592 47.1963 9.18605 47.5762 9.51464 47.8355C9.84144 48.0934 10.2271 48.0842 10.4925 48.038ZM10.5661 46.2914L16.291 26.4698L28.8839 36.5716L10.7617 46.4689C10.6694 46.5109 10.5875 46.5454 10.5151 46.5729C10.5266 46.4917 10.5434 46.3983 10.5661 46.2914Z" fill="url(#paint10_linear_84_3575)"/>
<path fill-rule="evenodd" clip-rule="evenodd" d="M22.2367 41.7918C22.5397 41.549 22.5885 41.1065 22.3457 40.8034L14.6233 31.1674C14.3804 30.8644 13.9379 30.8156 13.6349 31.0585C13.3319 31.3013 13.2831 31.7438 13.5259 32.0468L21.2483 41.6828C21.4912 41.9859 21.9337 42.0347 22.2367 41.7918Z" fill="url(#paint11_linear_84_3575)"/>
<path fill-rule="evenodd" clip-rule="evenodd" d="M18.0646 44.0691C18.3676 43.8261 18.4162 43.3836 18.1733 43.0806L13.0339 36.6708C12.791 36.3678 12.3485 36.3191 12.0455 36.562C11.7426 36.805 11.6939 37.2475 11.9368 37.5504L17.0762 43.9603C17.3191 44.2633 17.7616 44.312 18.0646 44.0691Z" fill="url(#paint12_linear_84_3575)"/>
<path fill-rule="evenodd" clip-rule="evenodd" d="M15.115 45.6794C15.418 45.4364 15.4666 44.9939 15.2237 44.691L11.9099 40.5586C11.6669 40.2557 11.2244 40.207 10.9215 40.45C10.6185 40.6929 10.5699 41.1355 10.8128 41.4384L14.1266 45.5707C14.3695 45.8737 14.8121 45.9223 15.115 45.6794Z" fill="url(#paint13_linear_84_3575)"/>
<path fill-rule="evenodd" clip-rule="evenodd" d="M25.1863 40.1815C25.4894 39.9387 25.5382 39.4962 25.2954 39.1931L21.2668 34.1651C21.024 33.8621 20.5815 33.8133 20.2784 34.0561C19.9754 34.2989 19.9265 34.7414 20.1694 35.0444L24.198 40.0724C24.4408 40.3755 24.8833 40.4243 25.1863 40.1815ZM19.0821 32.5652C19.3852 32.3225 19.4341 31.88 19.1913 31.5769L15.7474 27.277C15.5047 26.9739 15.0622 26.925 14.7591 27.1677C14.456 27.4105 14.4071 27.853 14.6498 28.1561L18.0937 32.456C18.3365 32.7591 18.779 32.808 19.0821 32.5652Z" fill="url(#paint14_linear_84_3575)"/>
<path fill-rule="evenodd" clip-rule="evenodd" d="M2.41223 41.1344C2.41223 41.7566 2.91837 42.2627 3.54051 42.2627H11.2019C11.5902 42.2627 11.905 41.9479 11.905 41.5596C11.905 41.1712 11.5902 40.8564 11.2019 40.8564H3.81848V5.71426H44.1815V40.8564H21.2177C20.8294 40.8564 20.5146 41.1712 20.5146 41.5596C20.5146 41.9479 20.8294 42.2627 21.2177 42.2627H44.4595C45.0816 42.2627 45.5878 41.7566 45.5878 41.1344V5.43639C45.5878 4.81425 45.0817 4.30801 44.4595 4.30801H3.54051C2.91827 4.30801 2.41223 4.81426 2.41223 5.43639V41.1344Z" fill="url(#paint15_linear_84_3575)"/>
<path fill-rule="evenodd" clip-rule="evenodd" d="M2.41235 15.9043C2.41235 16.2926 2.72715 16.6074 3.11548 16.6074H22.2542C22.6425 16.6074 22.9573 16.2926 22.9573 15.9043C22.9573 15.516 22.6425 15.2012 22.2542 15.2012H3.11548C2.72715 15.2012 2.41235 15.516 2.41235 15.9043ZM24.7957 15.9043C24.7957 16.2926 25.1105 16.6074 25.4989 16.6074H44.8848C45.2731 16.6074 45.5879 16.2926 45.5879 15.9043C45.5879 15.516 45.2731 15.2012 44.8848 15.2012H25.4989C25.1105 15.2012 24.7957 15.516 24.7957 15.9043ZM2.41235 12.6037C2.41235 12.9921 2.72715 13.3069 3.11548 13.3069H44.8848C45.2731 13.3069 45.5879 12.9921 45.5879 12.6037C45.5879 12.2154 45.2731 11.9006 44.8848 11.9006H3.11548C2.72715 11.9006 2.41235 12.2154 2.41235 12.6037Z" fill="url(#paint16_linear_84_3575)"/>
</g>
</g>
<defs>
<linearGradient id="paint0_linear_84_3575" x1="7.34985" y1="5.01087" x2="13.8503" y2="5.01087" gradientUnits="userSpaceOnUse">
<stop stop-color="#0CBAF1"/>
<stop offset="1" stop-color="#E95CE9"/>
</linearGradient>
<linearGradient id="paint1_linear_84_3575" x1="16.5045" y1="5.01087" x2="23.005" y2="5.01087" gradientUnits="userSpaceOnUse">
<stop stop-color="#0CBAF1"/>
<stop offset="1" stop-color="#E95CE9"/>
</linearGradient>
<linearGradient id="paint2_linear_84_3575" x1="25.6593" y1="5.01087" x2="32.1598" y2="5.01087" gradientUnits="userSpaceOnUse">
<stop stop-color="#0CBAF1"/>
<stop offset="1" stop-color="#E95CE9"/>
</linearGradient>
<linearGradient id="paint3_linear_84_3575" x1="34.8141" y1="5.01087" x2="41.3146" y2="5.01087" gradientUnits="userSpaceOnUse">
<stop stop-color="#0CBAF1"/>
<stop offset="1" stop-color="#E95CE9"/>
</linearGradient>
<linearGradient id="paint4_linear_84_3575" x1="13.9109" y1="30.9723" x2="32.1439" y2="30.9723" gradientUnits="userSpaceOnUse">
<stop stop-color="#0CBAF1"/>
<stop offset="1" stop-color="#E95CE9"/>
</linearGradient>
<linearGradient id="paint5_linear_84_3575" x1="26.345" y1="23.6137" x2="30.3715" y2="23.6137" gradientUnits="userSpaceOnUse">
<stop stop-color="#0CBAF1"/>
<stop offset="1" stop-color="#E95CE9"/>
</linearGradient>
<linearGradient id="paint6_linear_84_3575" x1="21.3145" y1="24.2711" x2="25.5297" y2="24.2711" gradientUnits="userSpaceOnUse">
<stop stop-color="#0CBAF1"/>
<stop offset="1" stop-color="#E95CE9"/>
</linearGradient>
<linearGradient id="paint7_linear_84_3575" x1="26.4724" y1="28.5756" x2="31.1048" y2="28.5756" gradientUnits="userSpaceOnUse">
<stop stop-color="#0CBAF1"/>
<stop offset="1" stop-color="#E95CE9"/>
</linearGradient>
<linearGradient id="paint8_linear_84_3575" x1="29.7172" y1="31.0445" x2="37.2594" y2="31.0445" gradientUnits="userSpaceOnUse">
<stop stop-color="#0CBAF1"/>
<stop offset="1" stop-color="#E95CE9"/>
</linearGradient>
<linearGradient id="paint9_linear_84_3575" x1="19.0449" y1="21.6362" x2="21.2228" y2="21.6362" gradientUnits="userSpaceOnUse">
<stop stop-color="#0CBAF1"/>
<stop offset="1" stop-color="#E95CE9"/>
</linearGradient>
<linearGradient id="paint10_linear_84_3575" x1="9.08875" y1="36.3108" x2="30.8497" y2="36.3108" gradientUnits="userSpaceOnUse">
<stop stop-color="#0CBAF1"/>
<stop offset="1" stop-color="#E95CE9"/>
</linearGradient>
<linearGradient id="paint11_linear_84_3575" x1="13.3715" y1="36.4251" x2="22.5001" y2="36.4251" gradientUnits="userSpaceOnUse">
<stop stop-color="#0CBAF1"/>
<stop offset="1" stop-color="#E95CE9"/>
</linearGradient>
<linearGradient id="paint12_linear_84_3575" x1="11.7822" y1="40.3155" x2="18.3279" y2="40.3155" gradientUnits="userSpaceOnUse">
<stop stop-color="#0CBAF1"/>
<stop offset="1" stop-color="#E95CE9"/>
</linearGradient>
<linearGradient id="paint13_linear_84_3575" x1="10.6582" y1="43.0647" x2="15.3783" y2="43.0647" gradientUnits="userSpaceOnUse">
<stop stop-color="#0CBAF1"/>
<stop offset="1" stop-color="#E95CE9"/>
</linearGradient>
<linearGradient id="paint14_linear_84_3575" x1="14.4955" y1="33.6746" x2="25.4498" y2="33.6746" gradientUnits="userSpaceOnUse">
<stop stop-color="#0CBAF1"/>
<stop offset="1" stop-color="#E95CE9"/>
</linearGradient>
<linearGradient id="paint15_linear_84_3575" x1="2.41223" y1="23.2854" x2="45.5878" y2="23.2854" gradientUnits="userSpaceOnUse">
<stop stop-color="#0CBAF1"/>
<stop offset="1" stop-color="#E95CE9"/>
</linearGradient>
<linearGradient id="paint16_linear_84_3575" x1="2.41235" y1="14.254" x2="45.5879" y2="14.254" gradientUnits="userSpaceOnUse">
<stop stop-color="#0CBAF1"/>
<stop offset="1" stop-color="#E95CE9"/>
</linearGradient>
<clipPath id="clip0_84_3575">
<rect width="48" height="48" fill="white" transform="translate(0 0.0644531)"/>
</clipPath>
</defs>
</svg>
