<svg width="40" height="49" viewBox="0 0 40 49" fill="none" xmlns="http://www.w3.org/2000/svg">
<path fill-rule="evenodd" clip-rule="evenodd" d="M14.9622 39.7158C13.9334 39.7159 13.0991 38.8829 13.0976 37.8544L13.0976 37.8514L13.0881 36.1548C13.0881 36.1543 13.0881 36.1538 13.0881 36.1533C13.0837 33.3848 12.0654 30.688 10.1583 28.6581L10.1583 28.6581C7.91355 26.2691 6.52985 23.0648 6.49929 19.536C6.43541 12.1459 12.4179 6.02083 19.8074 5.91795C23.746 5.86314 27.3029 7.49365 29.8053 10.1363C30.0723 10.4182 30.5173 10.4304 30.7993 10.1634C31.0813 9.89636 31.0934 9.45134 30.8264 9.16937C28.0651 6.25338 24.1357 4.45133 19.7879 4.51183C11.6239 4.6255 5.02253 11.3852 5.09309 19.5482C5.12684 23.4443 6.65614 26.9845 9.13342 29.6211C10.785 31.3789 11.6783 33.728 11.6818 36.1569L11.6818 36.1598L11.6914 37.8563C11.6914 37.8569 11.6914 37.8574 11.6914 37.858C11.6948 39.6619 13.1583 41.1222 14.9623 41.1221L25.0619 41.1212C26.8699 41.1211 28.3348 39.6541 28.3323 37.8461L28.3323 37.8433L28.3226 36.0813C28.3226 36.0808 28.3226 36.0802 28.3226 36.0797C28.3195 33.6937 29.1964 31.3845 30.8247 29.6655L30.3497 29.2156L30.8247 29.6655C33.3546 26.9948 34.9076 23.3865 34.9076 19.4168C34.9076 16.5352 34.089 13.8426 32.6717 11.561C32.4667 11.2312 32.0332 11.1299 31.7034 11.3348C31.3735 11.5397 31.2722 11.9733 31.4771 12.3031C32.7602 14.3684 33.5014 16.805 33.5014 19.4168C33.5014 23.0125 32.0962 26.2784 29.8038 28.6984C27.9148 30.6925 26.9124 33.3547 26.9164 36.0834L26.9164 36.0862L26.926 37.8481C26.926 37.8485 26.926 37.8488 26.926 37.8492C26.9268 38.8793 26.0921 39.7149 25.0618 39.715L14.9622 39.7158Z" fill="url(#paint0_linear_84_3493)"/>
<path fill-rule="evenodd" clip-rule="evenodd" d="M17.4218 48.0645C15.6841 48.0647 14.2774 46.6521 14.2849 44.9144L17.4218 48.0645ZM17.4218 48.0645L22.5663 48.0639C22.5663 48.0639 22.5663 48.0639 22.5663 48.0639C24.293 48.0638 25.6951 46.668 25.7026 44.9412L25.7222 40.4215C25.7231 40.2345 25.6493 40.0549 25.5174 39.9224C25.3854 39.7898 25.2061 39.7153 25.019 39.7154L15.0077 39.7164C14.6206 39.7164 14.3063 40.0293 14.3046 40.4164L14.2849 44.9144M15.6912 44.9205C15.6912 44.9205 15.6912 44.9205 15.6912 44.9205L15.7078 41.1226L24.3129 41.1217L24.2963 44.9351C24.2922 45.8875 23.5188 46.6576 22.5662 46.6576L17.4216 46.6582C16.4631 46.6583 15.6871 45.8791 15.6912 44.9205Z" fill="url(#paint1_linear_84_3493)"/>
<path fill-rule="evenodd" clip-rule="evenodd" d="M16.1928 23.8372C16.2152 24.2084 16.5228 24.498 16.8947 24.498H23.0981C23.4486 24.498 23.7455 24.24 23.7944 23.893C23.8678 23.3722 24.0249 22.6629 24.3806 21.8837L24.3806 21.8836C24.7538 21.0661 25.2164 20.4542 25.5945 20.034L25.5947 20.0338C25.8944 19.7005 25.9574 19.2128 25.7426 18.8126M17.1061 21.5463C17.3302 22.1095 17.4562 22.6371 17.5261 23.0918L17.1061 21.5463ZM17.5261 23.0918H22.509C22.6206 22.5692 22.802 21.9554 23.1013 21.2998C23.4964 20.4342 23.9753 19.7622 24.3926 19.2722C23.8413 18.2579 23.2067 17.1869 22.4763 16.0813L22.4763 16.0812C21.6459 14.8241 20.806 13.6955 19.9918 12.6905C19.1593 13.7027 18.2967 14.8528 17.4474 16.1472C16.7444 17.2188 16.1378 18.2562 15.6142 19.2368C16.0959 19.7381 16.6892 20.4989 17.106 21.5463M15.4983 19.4555C15.4983 19.4555 15.4983 19.4555 15.4983 19.4554L15.4983 19.4555ZM24.549 19.0936C24.5489 19.0937 24.5488 19.0938 24.5487 19.0939C24.5488 19.0938 24.5489 19.0937 24.549 19.0936ZM24.5035 19.4775C24.5035 19.4775 24.5035 19.4775 24.5035 19.4776L24.5035 19.4775ZM16.1928 23.8372C16.1656 23.384 16.0748 22.758 15.7995 22.0663L16.1928 23.8372ZM15.7995 22.0663L15.7995 22.0663L15.7995 22.0663ZM15.7995 22.0663C15.4226 21.1193 14.8638 20.4616 14.4535 20.0636L15.7995 22.0663ZM14.4533 20.0635C14.1085 19.7291 14.0366 19.2137 14.2537 18.8009L14.4533 20.0635ZM25.7426 18.8125C25.1472 17.703 24.4549 16.525 23.6496 15.3061C22.7662 13.9688 21.8724 12.7723 21.0081 11.7112M14.2538 18.8008C14.8226 17.7194 15.4895 16.568 16.2716 15.3758L14.2538 18.8008ZM18.9831 11.7034C18.0975 12.7737 17.1773 13.9955 16.2717 15.3758L16.2716 15.3758M21.0081 11.7112C20.4863 11.0707 19.5098 11.0673 18.9833 11.7032L18.9831 11.7034" fill="url(#paint2_linear_84_3493)"/>
<path fill-rule="evenodd" clip-rule="evenodd" d="M16.1952 26.6357C16.1952 27.0241 16.51 27.3389 16.8983 27.3389H23.1018C23.4901 27.3389 23.8049 27.0241 23.8049 26.6357V23.795C23.8049 23.4067 23.4901 23.0919 23.1018 23.0919H16.8983C16.51 23.0919 16.1952 23.4067 16.1952 23.795V26.6357ZM17.6014 25.9326V24.4981H22.3986V25.9326H17.6014Z" fill="url(#paint3_linear_84_3493)"/>
<path fill-rule="evenodd" clip-rule="evenodd" d="M23.8653 41.1211C24.2536 41.1211 24.5684 40.8063 24.5684 40.418V27.3895C24.5684 26.5839 23.9145 25.9335 23.1114 25.9335H16.8887C16.0856 25.9335 15.4316 26.5839 15.4316 27.3895V37.3808C15.4316 37.7691 15.7464 38.0839 16.1348 38.0839C16.5231 38.0839 16.8379 37.7691 16.8379 37.3808V27.3895C16.8379 27.363 16.8597 27.3398 16.8887 27.3398H23.1114C23.1404 27.3398 23.1622 27.363 23.1622 27.3895V40.418C23.1622 40.8063 23.477 41.1211 23.8653 41.1211Z" fill="url(#paint4_linear_84_3493)"/>
<path fill-rule="evenodd" clip-rule="evenodd" d="M20 20.3125C20.3883 20.3125 20.7031 19.9977 20.7031 19.6094V11.9325C20.7031 11.5441 20.3883 11.2293 20 11.2293C19.6117 11.2293 19.2969 11.5441 19.2969 11.9325V19.6094C19.2969 19.9977 19.6117 20.3125 20 20.3125Z" fill="url(#paint5_linear_84_3493)"/>
<path fill-rule="evenodd" clip-rule="evenodd" d="M15.4321 29.8926C15.4321 30.2809 15.7469 30.5957 16.1353 30.5957H23.8648C24.2532 30.5957 24.568 30.2809 24.568 29.8926C24.568 29.5043 24.2532 29.1895 23.8648 29.1895H16.1353C15.7469 29.1895 15.4321 29.5043 15.4321 29.8926Z" fill="url(#paint6_linear_84_3493)"/>
<path fill-rule="evenodd" clip-rule="evenodd" d="M19.9935 2.77148C20.3819 2.77148 20.6967 2.45668 20.6967 2.06836V0.768047C20.6967 0.379722 20.3819 0.0649219 19.9935 0.0649219C19.6052 0.0649219 19.2904 0.379722 19.2904 0.768047V2.06836C19.2904 2.45668 19.6052 2.77148 19.9935 2.77148Z" fill="url(#paint7_linear_84_3493)"/>
<path fill-rule="evenodd" clip-rule="evenodd" d="M36.5065 19.8301C36.5065 20.2184 36.8213 20.5332 37.2096 20.5332H38.4694C38.8577 20.5332 39.1725 20.2184 39.1725 19.8301C39.1725 19.4418 38.8577 19.127 38.4694 19.127H37.2096C36.8213 19.127 36.5065 19.4418 36.5065 19.8301Z" fill="url(#paint8_linear_84_3493)"/>
<path fill-rule="evenodd" clip-rule="evenodd" d="M0.827393 19.8301C0.827393 20.2184 1.14219 20.5332 1.53052 20.5332H2.79033C3.17866 20.5332 3.49345 20.2184 3.49345 19.8301C3.49345 19.4418 3.17866 19.127 2.79033 19.127H1.53052C1.14219 19.127 0.827393 19.4418 0.827393 19.8301Z" fill="url(#paint9_linear_84_3493)"/>
<path fill-rule="evenodd" clip-rule="evenodd" d="M31.6797 7.77548C31.9586 8.0457 32.4037 8.03867 32.6739 7.75978L33.5648 6.84028C33.835 6.56139 33.828 6.11625 33.5491 5.84603C33.2702 5.57582 32.8251 5.58285 32.5549 5.86174L31.664 6.78124C31.3938 7.06013 31.4008 7.50526 31.6797 7.77548Z" fill="url(#paint10_linear_84_3493)"/>
<path fill-rule="evenodd" clip-rule="evenodd" d="M6.45079 33.8136C6.72968 34.0838 7.17482 34.0768 7.44504 33.7979L8.33594 32.8784C8.60616 32.5995 8.59913 32.1543 8.32024 31.8841C8.04135 31.6139 7.59621 31.6209 7.326 31.8998L6.43509 32.8193C6.16487 33.0982 6.1719 33.5434 6.45079 33.8136Z" fill="url(#paint11_linear_84_3493)"/>
<path fill-rule="evenodd" clip-rule="evenodd" d="M33.5491 33.8136C33.828 33.5434 33.835 33.0982 33.5648 32.8193L32.6739 31.8998C32.4037 31.6209 31.9586 31.6139 31.6797 31.8841C31.4008 32.1543 31.3938 32.5995 31.664 32.8784L32.5549 33.7979C32.8251 34.0768 33.2702 34.0838 33.5491 33.8136Z" fill="url(#paint12_linear_84_3493)"/>
<path fill-rule="evenodd" clip-rule="evenodd" d="M8.32024 7.77548C8.59913 7.50526 8.60616 7.06013 8.33594 6.78124L7.44504 5.86174C7.17482 5.58285 6.72968 5.57582 6.45079 5.84603C6.1719 6.11625 6.16487 6.56139 6.43509 6.84028L7.326 7.75978C7.59621 8.03867 8.04135 8.0457 8.32024 7.77548Z" fill="url(#paint13_linear_84_3493)"/>
<path fill-rule="evenodd" clip-rule="evenodd" d="M14.285 43.6563C14.285 44.0446 14.5998 44.3594 14.9882 44.3594H22.2887C22.677 44.3594 22.9918 44.0446 22.9918 43.6563C22.9918 43.2679 22.677 42.9531 22.2887 42.9531H14.9882C14.5998 42.9531 14.285 43.2679 14.285 43.6563Z" fill="url(#paint14_linear_84_3493)"/>
<defs>
<linearGradient id="paint0_linear_84_3493" x1="5.09253" y1="22.8162" x2="34.9076" y2="22.8162" gradientUnits="userSpaceOnUse">
<stop stop-color="#0CBAF1"/>
<stop offset="1" stop-color="#E95CE9"/>
</linearGradient>
<linearGradient id="paint1_linear_84_3493" x1="14.2849" y1="43.8899" x2="25.7222" y2="43.8899" gradientUnits="userSpaceOnUse">
<stop stop-color="#0CBAF1"/>
<stop offset="1" stop-color="#E95CE9"/>
</linearGradient>
<linearGradient id="paint2_linear_84_3493" x1="14.1305" y1="17.8633" x2="25.8696" y2="17.8633" gradientUnits="userSpaceOnUse">
<stop stop-color="#0CBAF1"/>
<stop offset="1" stop-color="#E95CE9"/>
</linearGradient>
<linearGradient id="paint3_linear_84_3493" x1="16.1952" y1="25.2154" x2="23.8049" y2="25.2154" gradientUnits="userSpaceOnUse">
<stop stop-color="#0CBAF1"/>
<stop offset="1" stop-color="#E95CE9"/>
</linearGradient>
<linearGradient id="paint4_linear_84_3493" x1="15.4316" y1="33.5273" x2="24.5684" y2="33.5273" gradientUnits="userSpaceOnUse">
<stop stop-color="#0CBAF1"/>
<stop offset="1" stop-color="#E95CE9"/>
</linearGradient>
<linearGradient id="paint5_linear_84_3493" x1="19.2969" y1="15.7709" x2="20.7031" y2="15.7709" gradientUnits="userSpaceOnUse">
<stop stop-color="#0CBAF1"/>
<stop offset="1" stop-color="#E95CE9"/>
</linearGradient>
<linearGradient id="paint6_linear_84_3493" x1="15.4321" y1="29.8926" x2="24.568" y2="29.8926" gradientUnits="userSpaceOnUse">
<stop stop-color="#0CBAF1"/>
<stop offset="1" stop-color="#E95CE9"/>
</linearGradient>
<linearGradient id="paint7_linear_84_3493" x1="19.2904" y1="1.4182" x2="20.6967" y2="1.4182" gradientUnits="userSpaceOnUse">
<stop stop-color="#0CBAF1"/>
<stop offset="1" stop-color="#E95CE9"/>
</linearGradient>
<linearGradient id="paint8_linear_84_3493" x1="36.5065" y1="19.8301" x2="39.1725" y2="19.8301" gradientUnits="userSpaceOnUse">
<stop stop-color="#0CBAF1"/>
<stop offset="1" stop-color="#E95CE9"/>
</linearGradient>
<linearGradient id="paint9_linear_84_3493" x1="0.827393" y1="19.8301" x2="3.49345" y2="19.8301" gradientUnits="userSpaceOnUse">
<stop stop-color="#0CBAF1"/>
<stop offset="1" stop-color="#E95CE9"/>
</linearGradient>
<linearGradient id="paint10_linear_84_3493" x1="31.4658" y1="6.81076" x2="33.763" y2="6.81076" gradientUnits="userSpaceOnUse">
<stop stop-color="#0CBAF1"/>
<stop offset="1" stop-color="#E95CE9"/>
</linearGradient>
<linearGradient id="paint11_linear_84_3493" x1="6.23694" y1="32.8488" x2="8.5341" y2="32.8488" gradientUnits="userSpaceOnUse">
<stop stop-color="#0CBAF1"/>
<stop offset="1" stop-color="#E95CE9"/>
</linearGradient>
<linearGradient id="paint12_linear_84_3493" x1="31.4658" y1="32.8488" x2="33.763" y2="32.8488" gradientUnits="userSpaceOnUse">
<stop stop-color="#0CBAF1"/>
<stop offset="1" stop-color="#E95CE9"/>
</linearGradient>
<linearGradient id="paint13_linear_84_3493" x1="6.23694" y1="6.81076" x2="8.5341" y2="6.81076" gradientUnits="userSpaceOnUse">
<stop stop-color="#0CBAF1"/>
<stop offset="1" stop-color="#E95CE9"/>
</linearGradient>
<linearGradient id="paint14_linear_84_3493" x1="14.285" y1="43.6563" x2="22.9918" y2="43.6563" gradientUnits="userSpaceOnUse">
<stop stop-color="#0CBAF1"/>
<stop offset="1" stop-color="#E95CE9"/>
</linearGradient>
</defs>
</svg>
