<svg width="48" height="49" viewBox="0 0 48 49" fill="none" xmlns="http://www.w3.org/2000/svg">
<path fill-rule="evenodd" clip-rule="evenodd" d="M39.797 40.2266C39.797 40.6149 40.1118 40.9297 40.5001 40.9297H43.207C45.8563 40.9297 48 38.7756 48 36.1231V16.5401C48 13.8876 45.8563 11.7335 43.207 11.7335H32.429C32.0407 11.7335 31.7259 12.0483 31.7259 12.4366C31.7259 12.825 32.0407 13.1398 32.429 13.1398H43.207C45.0753 13.1398 46.5938 14.6599 46.5938 16.5401V36.1231C46.5938 38.0033 45.0753 39.5234 43.207 39.5234H40.5001C40.1118 39.5234 39.797 39.8382 39.797 40.2266Z" fill="url(#paint0_linear_84_3529)"/>
<path fill-rule="evenodd" clip-rule="evenodd" d="M6.56255 48.0026C6.81494 48.1161 7.11043 48.071 7.31748 47.8874L15.1638 40.9293H36.3454C36.7337 40.9293 37.0485 40.6145 37.0485 40.2262C37.0485 39.8379 36.7337 39.5231 36.3454 39.5231H14.897C14.725 39.5231 14.5591 39.5861 14.4305 39.7001L7.55409 45.798V40.2262C7.55409 39.8379 7.23929 39.5231 6.85097 39.5231H4.79306C2.92484 39.5231 1.40625 38.0029 1.40625 36.1228V16.5398C1.40625 14.6596 2.92486 13.1394 4.79306 13.1394H15.3665C15.7548 13.1394 16.0696 12.8246 16.0696 12.4363C16.0696 12.0479 15.7548 11.7331 15.3665 11.7331H4.79306C2.14383 11.7331 0 13.8873 0 16.5398V36.1228C0 38.7752 2.14385 40.9293 4.79306 40.9293H6.14784V47.3613C6.14784 47.6381 6.31017 47.8891 6.56255 48.0026Z" fill="url(#paint1_linear_84_3529)"/>
<path fill-rule="evenodd" clip-rule="evenodd" d="M7.53107 22.0771C7.53107 22.4655 7.84587 22.7803 8.23419 22.7803H39.7659C40.1542 22.7803 40.469 22.4655 40.469 22.0771C40.469 21.6888 40.1542 21.374 39.7659 21.374H8.23419C7.84587 21.374 7.53107 21.6888 7.53107 22.0771Z" fill="url(#paint2_linear_84_3529)"/>
<path fill-rule="evenodd" clip-rule="evenodd" d="M7.53107 26.8301C7.53107 27.2184 7.84587 27.5332 8.23419 27.5332H39.7659C40.1542 27.5332 40.469 27.2184 40.469 26.8301C40.469 26.4418 40.1542 26.127 39.7659 26.127H8.23419C7.84587 26.127 7.53107 26.4418 7.53107 26.8301Z" fill="url(#paint3_linear_84_3529)"/>
<path fill-rule="evenodd" clip-rule="evenodd" d="M7.53107 31.582C7.53107 31.9704 7.84587 32.2852 8.23419 32.2852H27.1557C27.544 32.2852 27.8588 31.9704 27.8588 31.582C27.8588 31.1937 27.544 30.8789 27.1557 30.8789H8.23419C7.84587 30.8789 7.53107 31.1937 7.53107 31.582Z" fill="url(#paint4_linear_84_3529)"/>
<path fill-rule="evenodd" clip-rule="evenodd" d="M14.4196 9.64528C14.4196 14.9364 18.709 19.2256 24 19.2256C29.2912 19.2256 33.5804 14.9364 33.5804 9.64528C33.5804 4.3542 29.2912 0.0648689 24 0.0648689C22.3016 0.0648689 20.7043 0.507507 19.3195 1.28426C18.9809 1.47424 18.8603 1.9028 19.0503 2.24148C19.2403 2.58016 19.6688 2.70071 20.0075 2.51073C21.1876 1.84879 22.5487 1.47112 24 1.47112C28.5145 1.47112 32.1742 5.13085 32.1742 9.64528C32.1742 14.1597 28.5145 17.8193 24 17.8193C19.4856 17.8193 15.8259 14.1597 15.8259 9.64528C15.8259 7.80671 16.4321 6.11176 17.4557 4.7466C17.6887 4.43592 17.6257 3.9952 17.315 3.76224C17.0044 3.52927 16.5636 3.59227 16.3307 3.90295C15.1308 5.50311 14.4196 7.49215 14.4196 9.64528Z" fill="url(#paint5_linear_84_3529)"/>
<path fill-rule="evenodd" clip-rule="evenodd" d="M18.436 15.6301C19.6192 13.809 21.6692 12.6064 23.9998 12.6064C26.2781 12.6064 28.302 13.802 29.5409 15.6515C28.0834 16.9973 26.1386 17.8193 24 17.8193C21.8501 17.8193 19.8959 16.9887 18.436 15.6301ZM17.0406 16.2258C18.7857 18.0708 21.2576 19.2256 24 19.2256C26.7338 19.2256 29.1987 18.0779 30.9429 16.2432C31.1565 16.0185 31.1978 15.6803 31.0444 15.4109C29.6212 12.9105 27.0151 11.2001 23.9998 11.2001C20.9466 11.2001 18.2936 12.9033 16.9336 15.4069C16.7883 15.6743 16.8315 16.0047 17.0406 16.2258Z" fill="url(#paint6_linear_84_3529)"/>
<path fill-rule="evenodd" clip-rule="evenodd" d="M19.8708 8.50085C19.8708 10.7812 21.7193 12.6299 23.9998 12.6299C26.2802 12.6299 28.1289 10.7812 28.1289 8.50085C28.1289 6.22036 26.2802 4.37182 23.9998 4.37182C21.7193 4.37182 19.8708 6.22037 19.8708 8.50085ZM23.9998 11.2236C22.496 11.2236 21.277 10.0046 21.277 8.50085C21.277 6.99702 22.496 5.77807 23.9998 5.77807C25.5036 5.77807 26.7226 6.99703 26.7226 8.50085C26.7226 10.0046 25.5036 11.2236 23.9998 11.2236Z" fill="url(#paint7_linear_84_3529)"/>
<defs>
<linearGradient id="paint0_linear_84_3529" x1="31.7259" y1="26.3316" x2="48" y2="26.3316" gradientUnits="userSpaceOnUse">
<stop stop-color="#0CBAF1"/>
<stop offset="1" stop-color="#E95CE9"/>
</linearGradient>
<linearGradient id="paint1_linear_84_3529" x1="0" y1="29.8988" x2="37.0485" y2="29.8988" gradientUnits="userSpaceOnUse">
<stop stop-color="#0CBAF1"/>
<stop offset="1" stop-color="#E95CE9"/>
</linearGradient>
<linearGradient id="paint2_linear_84_3529" x1="7.53107" y1="22.0771" x2="40.469" y2="22.0771" gradientUnits="userSpaceOnUse">
<stop stop-color="#0CBAF1"/>
<stop offset="1" stop-color="#E95CE9"/>
</linearGradient>
<linearGradient id="paint3_linear_84_3529" x1="7.53107" y1="26.8301" x2="40.469" y2="26.8301" gradientUnits="userSpaceOnUse">
<stop stop-color="#0CBAF1"/>
<stop offset="1" stop-color="#E95CE9"/>
</linearGradient>
<linearGradient id="paint4_linear_84_3529" x1="7.53107" y1="31.582" x2="27.8588" y2="31.582" gradientUnits="userSpaceOnUse">
<stop stop-color="#0CBAF1"/>
<stop offset="1" stop-color="#E95CE9"/>
</linearGradient>
<linearGradient id="paint5_linear_84_3529" x1="14.4196" y1="9.64523" x2="33.5804" y2="9.64523" gradientUnits="userSpaceOnUse">
<stop stop-color="#0CBAF1"/>
<stop offset="1" stop-color="#E95CE9"/>
</linearGradient>
<linearGradient id="paint6_linear_84_3529" x1="16.8483" y1="15.2129" x2="31.1365" y2="15.2129" gradientUnits="userSpaceOnUse">
<stop stop-color="#0CBAF1"/>
<stop offset="1" stop-color="#E95CE9"/>
</linearGradient>
<linearGradient id="paint7_linear_84_3529" x1="19.8708" y1="8.50085" x2="28.1289" y2="8.50085" gradientUnits="userSpaceOnUse">
<stop stop-color="#0CBAF1"/>
<stop offset="1" stop-color="#E95CE9"/>
</linearGradient>
</defs>
</svg>
