<svg width="44" height="49" viewBox="0 0 44 49" fill="none" xmlns="http://www.w3.org/2000/svg">
<path fill-rule="evenodd" clip-rule="evenodd" d="M5.34985 6.70901C5.34985 8.4977 6.80984 9.95801 8.59867 9.95801C8.98699 9.95801 9.30179 9.64321 9.30179 9.25488C9.30179 8.86656 8.98699 8.55176 8.59867 8.55176C7.58662 8.55176 6.7561 7.72119 6.7561 6.70901V3.31273C6.7561 2.30055 7.58662 1.46998 8.59867 1.46998C9.61395 1.46998 10.444 2.30107 10.444 3.31273V5.01082C10.444 5.39915 10.7588 5.71395 11.1472 5.71395C11.5355 5.71395 11.8503 5.39915 11.8503 5.01082V3.31273C11.8503 1.52351 10.3897 0.0637274 8.59867 0.0637274C6.80984 0.0637274 5.34985 1.52403 5.34985 3.31273V6.70901Z" fill="url(#paint0_linear_84_3581)"/>
<path fill-rule="evenodd" clip-rule="evenodd" d="M14.5045 6.70901C14.5045 8.49774 15.9646 9.95801 17.7534 9.95801C18.1417 9.95801 18.4565 9.64321 18.4565 9.25488C18.4565 8.86656 18.1417 8.55176 17.7534 8.55176C16.7413 8.55176 15.9108 7.72115 15.9108 6.70901V3.31273C15.9108 2.30058 16.7413 1.46998 17.7534 1.46998C18.7687 1.46998 19.5988 2.30107 19.5988 3.31273V5.01082C19.5988 5.39915 19.9136 5.71395 20.3019 5.71395C20.6902 5.71395 21.005 5.39915 21.005 5.01082V3.31273C21.005 1.52351 19.5444 0.0637274 17.7534 0.0637274C15.9646 0.0637274 14.5045 1.524 14.5045 3.31273V6.70901Z" fill="url(#paint1_linear_84_3581)"/>
<path fill-rule="evenodd" clip-rule="evenodd" d="M23.6593 6.70901C23.6593 8.49774 25.1194 9.95801 26.9082 9.95801C27.2965 9.95801 27.6113 9.64321 27.6113 9.25488C27.6113 8.86656 27.2965 8.55176 26.9082 8.55176C25.8961 8.55176 25.0656 7.72115 25.0656 6.70901V3.31273C25.0656 2.30058 25.8961 1.46998 26.9082 1.46998C27.9235 1.46998 28.7536 2.30107 28.7536 3.31273V5.01082C28.7536 5.39915 29.0684 5.71395 29.4567 5.71395C29.845 5.71395 30.1598 5.39915 30.1598 5.01082V3.31273C30.1598 1.52351 28.6992 0.0637274 26.9082 0.0637274C25.1194 0.0637274 23.6593 1.524 23.6593 3.31273V6.70901Z" fill="url(#paint2_linear_84_3581)"/>
<path fill-rule="evenodd" clip-rule="evenodd" d="M32.8141 6.70901C32.8141 8.49822 34.2747 9.95801 36.0657 9.95801C36.454 9.95801 36.7688 9.64321 36.7688 9.25488C36.7688 8.86656 36.454 8.55176 36.0657 8.55176C35.0504 8.55176 34.2203 7.72067 34.2203 6.70901V3.31273C34.2203 2.30107 35.0504 1.46998 36.0657 1.46998C37.0778 1.46998 37.9084 2.30058 37.9084 3.31273V5.01082C37.9084 5.39915 38.2232 5.71395 38.6115 5.71395C38.9998 5.71395 39.3146 5.39915 39.3146 5.01082V3.31273C39.3146 1.524 37.8545 0.0637274 36.0657 0.0637274C34.2747 0.0637274 32.8141 1.52351 32.8141 3.31273V6.70901Z" fill="url(#paint3_linear_84_3581)"/>
<path fill-rule="evenodd" clip-rule="evenodd" d="M29.9893 38.1596C30.2322 37.8567 30.1836 37.4141 29.8807 37.1712L13.0539 23.6764C12.751 23.4335 12.3085 23.4821 12.0655 23.785C11.8226 24.088 11.8712 24.5305 12.1741 24.7735L29.0009 38.2682C29.3038 38.5112 29.7463 38.4625 29.9893 38.1596Z" fill="url(#paint4_linear_84_3581)"/>
<path fill-rule="evenodd" clip-rule="evenodd" d="M24.6083 25.7966C24.9113 26.0395 25.3539 25.9908 25.5967 25.6878L28.217 22.4191C28.4598 22.1161 28.4111 21.6736 28.1081 21.4307C27.8051 21.1878 27.3626 21.2366 27.1197 21.5396L24.4995 24.8082C24.2566 25.1112 24.3054 25.5538 24.6083 25.7966Z" fill="url(#paint5_linear_84_3581)"/>
<path fill-rule="evenodd" clip-rule="evenodd" d="M19.5549 26.7658C19.8474 27.0213 20.2916 26.9914 20.5471 26.699C21.4762 25.6356 22.5944 24.2697 23.4497 22.6314C23.6294 22.2871 23.4961 21.8624 23.1518 21.6827C22.8076 21.5029 22.3829 21.6363 22.2031 21.9805C21.4269 23.4674 20.398 24.7324 19.4881 25.7737C19.2326 26.0661 19.2625 26.5103 19.5549 26.7658Z" fill="url(#paint6_linear_84_3581)"/>
<path fill-rule="evenodd" clip-rule="evenodd" d="M24.7591 30.9385C25.072 31.1685 25.5121 31.1014 25.7421 30.7885C26.5602 29.6758 27.5727 28.3941 28.854 27.3175C29.1513 27.0677 29.1898 26.6241 28.94 26.3268C28.6902 26.0295 28.2467 25.991 27.9494 26.2408C26.5362 27.4283 25.4438 28.8201 24.6091 29.9555C24.3791 30.2684 24.4462 30.7085 24.7591 30.9385Z" fill="url(#paint7_linear_84_3581)"/>
<path fill-rule="evenodd" clip-rule="evenodd" d="M28.0132 33.5498C28.3298 33.7746 28.7688 33.7002 28.9936 33.3836C30.0976 31.829 31.696 29.9525 34.5897 29.8148C34.9776 29.7964 35.2771 29.467 35.2586 29.0791C35.2402 28.6912 34.9108 28.3917 34.5229 28.4102C30.9377 28.5808 28.9964 30.951 27.8471 32.5694C27.6222 32.886 27.6966 33.3249 28.0132 33.5498Z" fill="url(#paint8_linear_84_3581)"/>
<path fill-rule="evenodd" clip-rule="evenodd" d="M17.3892 23.8193C17.7231 24.0176 18.1545 23.9076 18.3528 23.5737C18.7822 22.8504 19.3781 21.6773 19.1857 19.9785C19.142 19.5926 18.7937 19.3153 18.4079 19.359C18.022 19.4027 17.7446 19.7509 17.7883 20.1367C17.9306 21.3931 17.5061 22.245 17.1436 22.8558C16.9453 23.1897 17.0553 23.6211 17.3892 23.8193Z" fill="url(#paint9_linear_84_3581)"/>
<path fill-rule="evenodd" clip-rule="evenodd" d="M8.49248 48.038C8.769 47.9899 9.06823 47.8759 9.37103 47.7365C9.3856 47.7298 9.39994 47.7226 9.41402 47.7149L28.4836 37.3003C28.6899 37.1876 28.8263 36.9792 28.847 36.745C28.8677 36.5108 28.77 36.2818 28.5866 36.1347L14.3482 24.7129C14.1648 24.5657 13.92 24.52 13.6959 24.591C13.4718 24.662 13.2979 24.8403 13.2327 25.0662L7.20824 45.9247C7.20383 45.94 7.19993 45.9555 7.19656 45.971C7.12296 46.3109 7.07662 46.6358 7.09153 46.9212C7.10592 47.1963 7.18605 47.5762 7.51464 47.8355C7.84144 48.0934 8.22714 48.0842 8.49248 48.038ZM8.56608 46.2914L14.291 26.4698L26.8839 36.5716L8.7617 46.4689C8.66945 46.5109 8.58753 46.5454 8.51507 46.5729C8.52661 46.4917 8.54336 46.3983 8.56608 46.2914Z" fill="url(#paint10_linear_84_3581)"/>
<path fill-rule="evenodd" clip-rule="evenodd" d="M20.2367 41.7918C20.5397 41.549 20.5885 41.1065 20.3457 40.8034L12.6233 31.1674C12.3804 30.8644 11.9379 30.8156 11.6349 31.0585C11.3319 31.3013 11.2831 31.7438 11.5259 32.0468L19.2483 41.6828C19.4912 41.9859 19.9337 42.0347 20.2367 41.7918Z" fill="url(#paint11_linear_84_3581)"/>
<path fill-rule="evenodd" clip-rule="evenodd" d="M16.0646 44.0691C16.3676 43.8261 16.4162 43.3836 16.1733 43.0806L11.0339 36.6708C10.791 36.3678 10.3485 36.3191 10.0455 36.562C9.74257 36.805 9.69389 37.2475 9.93681 37.5504L15.0762 43.9603C15.3191 44.2633 15.7616 44.312 16.0646 44.0691Z" fill="url(#paint12_linear_84_3581)"/>
<path fill-rule="evenodd" clip-rule="evenodd" d="M13.115 45.6794C13.418 45.4364 13.4666 44.9939 13.2237 44.691L9.90989 40.5586C9.66695 40.2557 9.22442 40.207 8.92147 40.45C8.61853 40.6929 8.56988 41.1355 8.81282 41.4384L12.1266 45.5707C12.3695 45.8737 12.8121 45.9223 13.115 45.6794Z" fill="url(#paint13_linear_84_3581)"/>
<path fill-rule="evenodd" clip-rule="evenodd" d="M23.1863 40.1815C23.4894 39.9387 23.5382 39.4962 23.2954 39.1931L19.2668 34.1651C19.024 33.8621 18.5815 33.8133 18.2784 34.0561C17.9754 34.2989 17.9265 34.7414 18.1694 35.0444L22.198 40.0724C22.4408 40.3755 22.8833 40.4243 23.1863 40.1815ZM17.0821 32.5652C17.3852 32.3225 17.4341 31.88 17.1913 31.5769L13.7474 27.277C13.5047 26.9739 13.0622 26.925 12.7591 27.1677C12.456 27.4105 12.4071 27.853 12.6498 28.1561L16.0937 32.456C16.3365 32.7591 16.779 32.808 17.0821 32.5652Z" fill="url(#paint14_linear_84_3581)"/>
<path fill-rule="evenodd" clip-rule="evenodd" d="M0.412231 41.1344C0.412231 41.7566 0.918374 42.2627 1.54051 42.2627H9.20186C9.59018 42.2627 9.90498 41.9479 9.90498 41.5596C9.90498 41.1712 9.59018 40.8564 9.20186 40.8564H1.81848V5.71426H42.1815V40.8564H19.2177C18.8294 40.8564 18.5146 41.1712 18.5146 41.5596C18.5146 41.9479 18.8294 42.2627 19.2177 42.2627H42.4595C43.0816 42.2627 43.5878 41.7566 43.5878 41.1344V5.43639C43.5878 4.81425 43.0817 4.30801 42.4595 4.30801H1.54051C0.918271 4.30801 0.412231 4.81426 0.412231 5.43639V41.1344Z" fill="url(#paint15_linear_84_3581)"/>
<path fill-rule="evenodd" clip-rule="evenodd" d="M0.412354 15.9043C0.412354 16.2926 0.727153 16.6074 1.11548 16.6074H20.2542C20.6425 16.6074 20.9573 16.2926 20.9573 15.9043C20.9573 15.516 20.6425 15.2012 20.2542 15.2012H1.11548C0.727153 15.2012 0.412354 15.516 0.412354 15.9043ZM22.7957 15.9043C22.7957 16.2926 23.1105 16.6074 23.4989 16.6074H42.8848C43.2731 16.6074 43.5879 16.2926 43.5879 15.9043C43.5879 15.516 43.2731 15.2012 42.8848 15.2012H23.4989C23.1105 15.2012 22.7957 15.516 22.7957 15.9043ZM0.412354 12.6037C0.412354 12.9921 0.727153 13.3069 1.11548 13.3069H42.8848C43.2731 13.3069 43.5879 12.9921 43.5879 12.6037C43.5879 12.2154 43.2731 11.9006 42.8848 11.9006H1.11548C0.727153 11.9006 0.412354 12.2154 0.412354 12.6037Z" fill="url(#paint16_linear_84_3581)"/>
<defs>
<linearGradient id="paint0_linear_84_3581" x1="5.34985" y1="5.01087" x2="11.8503" y2="5.01087" gradientUnits="userSpaceOnUse">
<stop stop-color="#0CBAF1"/>
<stop offset="1" stop-color="#E95CE9"/>
</linearGradient>
<linearGradient id="paint1_linear_84_3581" x1="14.5045" y1="5.01087" x2="21.005" y2="5.01087" gradientUnits="userSpaceOnUse">
<stop stop-color="#0CBAF1"/>
<stop offset="1" stop-color="#E95CE9"/>
</linearGradient>
<linearGradient id="paint2_linear_84_3581" x1="23.6593" y1="5.01087" x2="30.1598" y2="5.01087" gradientUnits="userSpaceOnUse">
<stop stop-color="#0CBAF1"/>
<stop offset="1" stop-color="#E95CE9"/>
</linearGradient>
<linearGradient id="paint3_linear_84_3581" x1="32.8141" y1="5.01087" x2="39.3146" y2="5.01087" gradientUnits="userSpaceOnUse">
<stop stop-color="#0CBAF1"/>
<stop offset="1" stop-color="#E95CE9"/>
</linearGradient>
<linearGradient id="paint4_linear_84_3581" x1="11.9109" y1="30.9723" x2="30.1439" y2="30.9723" gradientUnits="userSpaceOnUse">
<stop stop-color="#0CBAF1"/>
<stop offset="1" stop-color="#E95CE9"/>
</linearGradient>
<linearGradient id="paint5_linear_84_3581" x1="24.345" y1="23.6137" x2="28.3715" y2="23.6137" gradientUnits="userSpaceOnUse">
<stop stop-color="#0CBAF1"/>
<stop offset="1" stop-color="#E95CE9"/>
</linearGradient>
<linearGradient id="paint6_linear_84_3581" x1="19.3145" y1="24.2711" x2="23.5297" y2="24.2711" gradientUnits="userSpaceOnUse">
<stop stop-color="#0CBAF1"/>
<stop offset="1" stop-color="#E95CE9"/>
</linearGradient>
<linearGradient id="paint7_linear_84_3581" x1="24.4724" y1="28.5756" x2="29.1048" y2="28.5756" gradientUnits="userSpaceOnUse">
<stop stop-color="#0CBAF1"/>
<stop offset="1" stop-color="#E95CE9"/>
</linearGradient>
<linearGradient id="paint8_linear_84_3581" x1="27.7172" y1="31.0445" x2="35.2594" y2="31.0445" gradientUnits="userSpaceOnUse">
<stop stop-color="#0CBAF1"/>
<stop offset="1" stop-color="#E95CE9"/>
</linearGradient>
<linearGradient id="paint9_linear_84_3581" x1="17.0449" y1="21.6362" x2="19.2228" y2="21.6362" gradientUnits="userSpaceOnUse">
<stop stop-color="#0CBAF1"/>
<stop offset="1" stop-color="#E95CE9"/>
</linearGradient>
<linearGradient id="paint10_linear_84_3581" x1="7.08875" y1="36.3108" x2="28.8497" y2="36.3108" gradientUnits="userSpaceOnUse">
<stop stop-color="#0CBAF1"/>
<stop offset="1" stop-color="#E95CE9"/>
</linearGradient>
<linearGradient id="paint11_linear_84_3581" x1="11.3715" y1="36.4251" x2="20.5001" y2="36.4251" gradientUnits="userSpaceOnUse">
<stop stop-color="#0CBAF1"/>
<stop offset="1" stop-color="#E95CE9"/>
</linearGradient>
<linearGradient id="paint12_linear_84_3581" x1="9.78223" y1="40.3155" x2="16.3279" y2="40.3155" gradientUnits="userSpaceOnUse">
<stop stop-color="#0CBAF1"/>
<stop offset="1" stop-color="#E95CE9"/>
</linearGradient>
<linearGradient id="paint13_linear_84_3581" x1="8.6582" y1="43.0647" x2="13.3783" y2="43.0647" gradientUnits="userSpaceOnUse">
<stop stop-color="#0CBAF1"/>
<stop offset="1" stop-color="#E95CE9"/>
</linearGradient>
<linearGradient id="paint14_linear_84_3581" x1="12.4955" y1="33.6746" x2="23.4498" y2="33.6746" gradientUnits="userSpaceOnUse">
<stop stop-color="#0CBAF1"/>
<stop offset="1" stop-color="#E95CE9"/>
</linearGradient>
<linearGradient id="paint15_linear_84_3581" x1="0.412231" y1="23.2854" x2="43.5878" y2="23.2854" gradientUnits="userSpaceOnUse">
<stop stop-color="#0CBAF1"/>
<stop offset="1" stop-color="#E95CE9"/>
</linearGradient>
<linearGradient id="paint16_linear_84_3581" x1="0.412354" y1="14.254" x2="43.5879" y2="14.254" gradientUnits="userSpaceOnUse">
<stop stop-color="#0CBAF1"/>
<stop offset="1" stop-color="#E95CE9"/>
</linearGradient>
</defs>
</svg>
