<svg width="48" height="31" viewBox="0 0 48 31" fill="none" xmlns="http://www.w3.org/2000/svg">
<path fill-rule="evenodd" clip-rule="evenodd" d="M26.0658 19.0633C24.6886 19.0661 23.3115 19.0661 21.9343 19.0633C21.546 19.0625 21.2305 19.3767 21.2297 19.765C21.2289 20.1533 21.5431 20.4688 21.9314 20.4696C23.3105 20.4724 24.6896 20.4724 26.0687 20.4696C26.457 20.4688 26.7712 20.1533 26.7704 19.765C26.7696 19.3767 26.4541 19.0625 26.0658 19.0633Z" fill="url(#paint0_linear_84_3552)"/>
<path fill-rule="evenodd" clip-rule="evenodd" d="M33.9835 28.3533C34.1868 28.0224 34.0834 27.5894 33.7525 27.3862C31.8732 26.2316 30.4573 24.3389 29.9752 22.0096C29.8965 21.6294 29.5244 21.3849 29.1441 21.4636C28.7639 21.5423 28.5194 21.9144 28.5981 22.2946C29.1623 25.0203 30.8214 27.2358 33.0164 28.5843C33.3473 28.7876 33.7803 28.6842 33.9835 28.3533Z" fill="url(#paint1_linear_84_3552)"/>
<path fill-rule="evenodd" clip-rule="evenodd" d="M7.61545 29.7505C12.9525 31.0391 18.2939 27.6525 19.4029 22.2943C19.4817 21.914 19.2372 21.5419 18.8569 21.4632C18.4767 21.3845 18.1046 21.629 18.0259 22.0092C17.0781 26.5881 12.5108 29.4864 7.94452 28.3833L7.94227 28.3827C7.88466 28.369 7.82777 28.3553 7.76944 28.3412L7.76908 28.3411C3.48177 27.3062 0.743731 23.1005 1.5455 18.7668C2.22372 15.1013 3.14475 11.3946 4.23927 7.65192C5.24116 4.22844 8.33105 1.8404 11.8984 1.71852L11.8986 1.71852C19.9666 1.44064 28.0335 1.44064 36.1015 1.71852L36.1017 1.71852C39.669 1.8404 42.7589 4.22844 43.7608 7.65192C44.8553 11.3946 45.7764 15.1013 46.4546 18.7668C47.2563 23.1005 44.5183 27.3062 40.231 28.3411L40.2306 28.3412C40.2025 28.348 40.1739 28.3548 40.1447 28.3618L40.1442 28.3619L40.1431 28.3622C40.1143 28.3691 40.0849 28.3762 40.0555 28.3833M7.61545 29.7505C7.55566 29.7362 7.497 29.7221 7.43973 29.7082L7.43912 29.7081C7.439 29.708 7.43888 29.708 7.43876 29.708C2.42816 28.4983 -0.775497 23.5822 0.162713 18.511L0.162716 18.511C0.85137 14.7891 1.78471 11.0352 2.88956 7.2572L2.88959 7.25709C4.06273 3.2482 7.67959 0.455675 11.8502 0.313105C19.9504 0.0341091 28.0497 0.0341091 36.1499 0.313105C40.3205 0.455677 43.9373 3.2482 45.1105 7.25709L45.1105 7.2572C46.2154 11.0352 47.1487 14.7891 47.8374 18.511C48.7756 23.5822 45.5719 28.4983 40.5613 29.708C40.5315 29.7152 40.5016 29.7224 40.4724 29.7294C40.443 29.7364 40.4143 29.7433 40.386 29.7502L40.3858 29.7502C38.8185 30.1289 37.2502 30.1039 35.7879 29.7439C35.4108 29.651 35.1804 29.2701 35.2732 28.893C35.3661 28.516 35.747 28.2856 36.1241 28.3784C37.373 28.6859 38.7126 28.7077 40.0553 28.3833" fill="url(#paint2_linear_84_3552)"/>
<path fill-rule="evenodd" clip-rule="evenodd" d="M18.814 21.4502C17.4182 21.4502 16.2866 20.3187 16.2866 18.9229C16.2866 17.5271 17.4182 16.3956 18.814 16.3956C20.2098 16.3956 21.3413 17.5271 21.3413 18.9229C21.3413 20.3187 20.2098 21.4502 18.814 21.4502ZM14.8804 18.9229C14.8804 21.0954 16.6416 22.8564 18.814 22.8564C20.9864 22.8564 22.7476 21.0954 22.7476 18.9229C22.7476 16.7504 20.9864 14.9893 18.814 14.9893C16.6416 14.9893 14.8804 16.7504 14.8804 18.9229Z" fill="url(#paint3_linear_84_3552)"/>
<path fill-rule="evenodd" clip-rule="evenodd" d="M29.1862 21.4502C27.7904 21.4502 26.6588 20.3187 26.6588 18.9229C26.6588 17.5271 27.7904 16.3956 29.1862 16.3956C30.582 16.3956 31.7135 17.5271 31.7135 18.9229C31.7135 20.3187 30.582 21.4502 29.1862 21.4502ZM25.2526 18.9229C25.2526 21.0954 27.0138 22.8564 29.1862 22.8564C31.3586 22.8564 33.1198 21.0954 33.1198 18.9229C33.1198 16.7504 31.3586 14.9893 29.1862 14.9893C27.0138 14.9893 25.2526 16.7504 25.2526 18.9229Z" fill="url(#paint4_linear_84_3552)"/>
<path fill-rule="evenodd" clip-rule="evenodd" d="M10.262 17.8311L10.3038 17.8311C11.8318 17.8303 13.0733 16.6106 13.1145 15.0883L13.1145 15.0882C13.1157 15.0436 13.1169 14.9989 13.1181 14.9542C13.1627 14.9531 13.2074 14.9519 13.2521 14.9507L13.2522 14.9507C14.7745 14.9094 15.9943 13.668 15.9949 12.1399V12.0981C15.9943 10.57 14.7745 9.3286 13.2522 9.28731L13.2521 9.28731C13.2074 9.28611 13.1628 9.28493 13.1181 9.28377C13.1169 9.23908 13.1158 9.19438 13.1145 9.14969L13.1145 9.14959C13.0733 7.62731 11.8318 6.40762 10.3038 6.40687H10.262C8.73404 6.40762 7.49244 7.62727 7.45115 9.14959L7.45115 9.14969C7.44994 9.19438 7.44876 9.23908 7.44761 9.28378C7.40297 9.28493 7.35834 9.28611 7.31371 9.28731L7.31362 9.28731C5.79126 9.3286 4.57155 10.57 4.5708 12.0981V12.1399C4.57155 13.668 5.79126 14.9094 7.31362 14.9507L7.31371 14.9507C7.35834 14.9519 7.40298 14.9531 7.44761 14.9542C7.44877 14.9989 7.44995 15.0436 7.45115 15.0882L7.45115 15.0883C7.49244 16.6107 8.73404 17.8303 10.262 17.8311ZM10.3031 16.4248H10.2627C10.2627 16.4248 10.2626 16.4248 10.2626 16.4248C10.2625 16.4248 10.2624 16.4248 10.2624 16.4248C9.50115 16.4242 8.87771 15.8163 8.85689 15.0503M10.3034 16.4248C10.3034 16.4248 10.3033 16.4248 10.3032 16.4248C10.3032 16.4248 10.3031 16.4248 10.3031 16.4248M10.3034 16.4248C11.0646 16.4242 11.688 15.8163 11.7088 15.0503L10.3034 16.4248ZM8.85689 15.0502C8.84971 14.7843 8.84347 14.5185 8.83826 14.2529C8.83085 13.8755 8.52673 13.5712 8.14931 13.5637C7.88342 13.5584 7.61753 13.5521 7.35174 13.545M11.7088 15.0502C11.716 14.7843 11.7222 14.5184 11.7275 14.2526L11.7088 15.0502ZM13.2141 13.545C12.9482 13.5521 12.6823 13.5584 12.4165 13.5637C12.0392 13.5712 11.7351 13.8753 11.7275 14.2526M13.2142 13.545C13.9803 13.5241 14.5882 12.9007 14.5886 12.1396C14.5886 12.1395 14.5886 12.1394 14.5886 12.1393V12.0987M5.97705 12.1394C5.97705 12.1393 5.97705 12.1393 5.97705 12.1392V12.0988C5.97705 12.0987 5.97705 12.0987 5.97705 12.0986C5.97705 12.0986 5.97705 12.0985 5.97705 12.0984C5.97761 11.3373 6.58553 10.7139 7.35165 10.693C7.61747 10.6859 7.88331 10.6796 8.14906 10.6744C8.52659 10.667 8.83085 10.3627 8.83826 9.98522C8.84347 9.7194 8.84971 9.4536 8.85689 9.18771M5.97705 12.1394C5.97705 12.1394 5.97705 12.1395 5.97705 12.1396V12.1394ZM5.97705 12.1396C5.97761 12.9007 6.58553 13.5241 7.35165 13.545L5.97705 12.1396ZM14.5886 12.0984C14.5882 11.3373 13.9803 10.7139 13.2142 10.693L14.5886 12.0984ZM13.2141 10.693C12.9482 10.6859 12.6824 10.6796 12.4167 10.6744C12.0393 10.667 11.7351 10.3629 11.7275 9.98547C11.7222 9.71949 11.716 9.4536 11.7088 9.18771M8.85689 9.18761C8.87772 8.42154 9.50134 7.81349 10.2627 7.81312H10.3031C11.0644 7.81349 11.688 8.4215 11.7088 9.18761" fill="url(#paint5_linear_84_3552)"/>
<path fill-rule="evenodd" clip-rule="evenodd" d="M40.4572 10.9228C39.9467 11.4333 39.119 11.4333 38.6086 10.9228C38.0981 10.4123 38.0981 9.58468 38.6086 9.07421C39.119 8.56373 39.9467 8.56373 40.4572 9.07421C40.9676 9.58468 40.9676 10.4123 40.4572 10.9228ZM37.6142 11.9172C38.6738 12.9768 40.3919 12.9768 41.4515 11.9172C42.5112 10.8575 42.5112 9.13949 41.4515 8.07984C40.3919 7.02019 38.6738 7.02019 37.6142 8.07984C36.5545 9.13949 36.5545 10.8575 37.6142 11.9172Z" fill="url(#paint6_linear_84_3552)"/>
<path fill-rule="evenodd" clip-rule="evenodd" d="M36.2164 15.164C35.706 15.6745 34.8783 15.6745 34.3678 15.164C33.8574 14.6535 33.8574 13.8259 34.3678 13.3154C34.8783 12.8049 35.706 12.8049 36.2164 13.3154C36.7269 13.8259 36.7269 14.6535 36.2164 15.164ZM33.3735 16.1584C34.4331 17.218 36.1512 17.218 37.2108 16.1584C38.2705 15.0987 38.2705 13.3807 37.2108 12.321C36.1512 11.2614 34.4331 11.2614 33.3735 12.321C32.3138 13.3807 32.3138 15.0987 33.3735 16.1584Z" fill="url(#paint7_linear_84_3552)"/>
<path fill-rule="evenodd" clip-rule="evenodd" d="M20.0294 10.8221C20.0294 11.9268 20.9249 12.8223 22.0296 12.8223H26.1901C27.2948 12.8223 28.1903 11.9268 28.1903 10.8221C28.1903 9.71738 27.2948 8.82186 26.1901 8.82186H22.0296C20.9249 8.82186 20.0294 9.71738 20.0294 10.8221ZM22.0296 11.416C21.7016 11.416 21.4357 11.1501 21.4357 10.8221C21.4357 10.494 21.7016 10.2281 22.0296 10.2281H26.1901C26.5181 10.2281 26.784 10.494 26.784 10.8221C26.784 11.1501 26.5181 11.416 26.1901 11.416H22.0296Z" fill="url(#paint8_linear_84_3552)"/>
<path fill-rule="evenodd" clip-rule="evenodd" d="M16.4456 5.49838C16.6281 5.15565 16.4983 4.72981 16.1555 4.54725C15.4411 4.16668 14.9353 3.44256 14.8575 2.58545C14.8094 2.03619 14.7824 1.48871 14.7797 0.943713C14.7777 0.555392 14.4614 0.24216 14.073 0.244089C13.6847 0.246017 13.3715 0.562377 13.3734 0.950697C13.3763 1.53787 13.4055 2.12442 13.4567 2.70919L13.4569 2.71111C13.5782 4.05298 14.3716 5.19036 15.4944 5.78841C15.8372 5.97097 16.263 5.84112 16.4456 5.49838Z" fill="url(#paint9_linear_84_3552)"/>
<path fill-rule="evenodd" clip-rule="evenodd" d="M30.7891 4.83104C26.7301 4.98978 22.6704 5.00658 18.6107 4.8796C18.2226 4.86746 17.8981 5.17226 17.886 5.5604C17.8738 5.94854 18.1786 6.27302 18.5668 6.28516C22.6595 6.41318 26.7522 6.39624 30.8439 6.23623M33.1424 2.5858C33.031 3.82336 32.0258 4.783 30.7893 4.83104L30.7891 4.83104M33.1424 2.5858C33.1905 2.03648 33.2176 1.48894 33.2203 0.943891C33.2222 0.555571 33.5386 0.242338 33.9269 0.244267C34.3152 0.246196 34.6285 0.562555 34.6266 0.950875C34.6236 1.53804 34.5945 2.1246 34.5433 2.70937L34.5431 2.71088C34.3693 4.64731 32.7928 6.16043 30.844 6.23622" fill="url(#paint10_linear_84_3552)"/>
<defs>
<linearGradient id="paint0_linear_84_3552" x1="21.2297" y1="19.7675" x2="26.7704" y2="19.7675" gradientUnits="userSpaceOnUse">
<stop stop-color="#0CBAF1"/>
<stop offset="1" stop-color="#E95CE9"/>
</linearGradient>
<linearGradient id="paint1_linear_84_3552" x1="28.5834" y1="25.0687" x2="34.0877" y2="25.0687" gradientUnits="userSpaceOnUse">
<stop stop-color="#0CBAF1"/>
<stop offset="1" stop-color="#E95CE9"/>
</linearGradient>
<linearGradient id="paint2_linear_84_3552" x1="-0.000244141" y1="15.0641" x2="48.0003" y2="15.0641" gradientUnits="userSpaceOnUse">
<stop stop-color="#0CBAF1"/>
<stop offset="1" stop-color="#E95CE9"/>
</linearGradient>
<linearGradient id="paint3_linear_84_3552" x1="14.8804" y1="18.9229" x2="22.7476" y2="18.9229" gradientUnits="userSpaceOnUse">
<stop stop-color="#0CBAF1"/>
<stop offset="1" stop-color="#E95CE9"/>
</linearGradient>
<linearGradient id="paint4_linear_84_3552" x1="25.2526" y1="18.9229" x2="33.1198" y2="18.9229" gradientUnits="userSpaceOnUse">
<stop stop-color="#0CBAF1"/>
<stop offset="1" stop-color="#E95CE9"/>
</linearGradient>
<linearGradient id="paint5_linear_84_3552" x1="4.5708" y1="12.119" x2="15.9949" y2="12.119" gradientUnits="userSpaceOnUse">
<stop stop-color="#0CBAF1"/>
<stop offset="1" stop-color="#E95CE9"/>
</linearGradient>
<linearGradient id="paint6_linear_84_3552" x1="36.8195" y1="9.99851" x2="42.2463" y2="9.99851" gradientUnits="userSpaceOnUse">
<stop stop-color="#0CBAF1"/>
<stop offset="1" stop-color="#E95CE9"/>
</linearGradient>
<linearGradient id="paint7_linear_84_3552" x1="32.5787" y1="14.2397" x2="38.0055" y2="14.2397" gradientUnits="userSpaceOnUse">
<stop stop-color="#0CBAF1"/>
<stop offset="1" stop-color="#E95CE9"/>
</linearGradient>
<linearGradient id="paint8_linear_84_3552" x1="20.0294" y1="10.8221" x2="28.1903" y2="10.8221" gradientUnits="userSpaceOnUse">
<stop stop-color="#0CBAF1"/>
<stop offset="1" stop-color="#E95CE9"/>
</linearGradient>
<linearGradient id="paint9_linear_84_3552" x1="13.3734" y1="3.05759" x2="16.5282" y2="3.05759" gradientUnits="userSpaceOnUse">
<stop stop-color="#0CBAF1"/>
<stop offset="1" stop-color="#E95CE9"/>
</linearGradient>
<linearGradient id="paint10_linear_84_3552" x1="17.8856" y1="3.30719" x2="34.6266" y2="3.30719" gradientUnits="userSpaceOnUse">
<stop stop-color="#0CBAF1"/>
<stop offset="1" stop-color="#E95CE9"/>
</linearGradient>
</defs>
</svg>
