<svg width="48" height="49" viewBox="0 0 48 49" fill="none" xmlns="http://www.w3.org/2000/svg">
<path fill-rule="evenodd" clip-rule="evenodd" d="M13.1832 32.333C11.0893 33.0401 8.78493 32.2014 7.63541 30.3138L7.04893 30.6709L7.63541 30.3138L3.73832 23.9143C2.02673 21.1037 1.68559 17.6675 2.81113 14.5751L6.77385 3.68776L6.11313 3.44727L6.77385 3.68775C7.41007 1.93972 9.34293 1.0384 11.091 1.67462L28.9451 8.17299L29.1856 7.51227L28.9451 8.17299C30.6931 8.80921 31.5944 10.7422 30.9582 12.4902L26.9955 23.3776C25.87 26.4698 23.3998 28.8829 20.2821 29.9358L13.1832 32.333L13.1832 32.333ZM13.6331 33.6653C10.9161 34.5829 7.92595 33.4946 6.43434 31.0452L2.53725 24.6457L3.13779 24.28L2.53725 24.6457C0.603465 21.4702 0.218042 17.5879 1.48969 14.0942L5.45241 3.20679C6.35425 0.728947 9.09408 -0.548668 11.5719 0.353176L29.426 6.85155C31.9039 7.7534 33.1815 10.4933 32.2797 12.9712L28.3169 23.8585C27.0453 27.3522 24.2545 30.0785 20.732 31.2681L20.5223 30.6471L20.732 31.2681L13.6332 33.6653C13.6332 33.6653 13.6332 33.6653 13.6331 33.6653Z" fill="url(#paint0_linear_84_3622)"/>
<path fill-rule="evenodd" clip-rule="evenodd" d="M18.5583 23.7202C17.1359 25.3807 14.7831 26.0745 12.6081 25.2829L12.3676 25.9436L12.6081 25.2829C10.4331 24.4912 9.07672 22.4474 9.05451 20.2611C10.2767 21.2764 11.7977 22.1516 13.5196 22.7784L13.5196 22.7784C15.2417 23.4052 16.9693 23.7124 18.5583 23.7202ZM12.1272 26.6043C15.4115 27.7997 19.0133 26.3086 20.5404 23.2581C20.6562 23.0269 20.6357 22.7509 20.4871 22.5393C20.3386 22.3277 20.0859 22.2147 19.8291 22.2451C18.1213 22.447 16.0761 22.2124 14.0006 21.4569C11.9252 20.7015 10.2076 19.5667 9.02926 18.3142C8.8521 18.1259 8.5859 18.05 8.33609 18.1166C8.08627 18.1832 7.89314 18.3815 7.83319 18.633C7.04209 21.9514 8.84287 25.4089 12.1272 26.6043L12.1272 26.6043Z" fill="url(#paint1_linear_84_3622)"/>
<path fill-rule="evenodd" clip-rule="evenodd" d="M13.7011 15.4944C14.0778 15.4002 14.3068 15.0184 14.2125 14.6417C13.9155 13.4544 12.9825 12.4204 11.6845 11.948M13.7011 15.4944C13.3243 15.5887 12.9425 15.3597 12.8483 14.983L13.7011 15.4944ZM12.8483 14.983C12.6721 14.2785 12.0922 13.5929 11.2035 13.2695L12.8483 14.983ZM7.86001 13.3685C8.08801 13.6829 8.52766 13.7529 8.84201 13.5249C9.42995 13.0985 10.3149 12.946 11.2035 13.2695L11.2035 13.2695M7.86001 13.3685C7.63202 13.0542 7.70202 12.6145 8.01637 12.3865L7.86001 13.3685ZM8.01637 12.3865C9.00717 11.6679 10.3865 11.4756 11.6845 11.948L8.01637 12.3865Z" fill="url(#paint2_linear_84_3622)"/>
<path fill-rule="evenodd" clip-rule="evenodd" d="M23.9034 19.2083C24.2801 19.1141 24.5091 18.7323 24.4148 18.3556C24.1178 17.1682 23.1848 16.1343 21.8868 15.6619M23.9034 19.2083C23.5266 19.3025 23.1449 19.0735 23.0506 18.6968L23.9034 19.2083ZM23.0506 18.6968C22.8744 17.9923 22.2945 17.3067 21.4059 16.9833L23.0506 18.6968ZM18.0623 17.0823C18.2903 17.3966 18.7299 17.4667 19.0443 17.2387C19.6323 16.8123 20.5172 16.6599 21.4058 16.9833L21.4059 16.9833M18.0623 17.0823C17.8343 16.7679 17.9044 16.3282 18.2187 16.1003L18.0623 17.0823ZM18.2187 16.1003C19.2095 15.3818 20.5888 15.1894 21.8868 15.6619L18.2187 16.1003Z" fill="url(#paint3_linear_84_3622)"/>
<path fill-rule="evenodd" clip-rule="evenodd" d="M15.8157 10.5899C15.9485 10.225 15.7604 9.82151 15.3955 9.6887C13.3684 8.95091 11.6484 8.89973 10.4224 9.04084C9.81062 9.11124 9.32343 9.22928 8.98332 9.33242C8.81321 9.38401 8.67964 9.43194 8.58538 9.46847C8.53824 9.48674 8.50089 9.50218 8.47368 9.51381C8.46008 9.51963 8.449 9.5245 8.4405 9.5283C8.43625 9.5302 8.43264 9.53184 8.42968 9.53319L8.42572 9.53501L8.42411 9.53575L8.4234 9.53608C8.42307 9.53624 8.42275 9.53639 8.71989 10.1736L8.42275 9.53639C8.0708 9.7005 7.91853 10.1188 8.08264 10.4708C8.2463 10.8217 8.66276 10.9741 9.01409 10.8123C9.0142 10.8122 9.01434 10.8121 9.01449 10.8121C9.0161 10.8114 9.02014 10.8096 9.02658 10.8068C9.03946 10.8013 9.06191 10.792 9.09359 10.7797C9.15696 10.7551 9.25713 10.7189 9.39141 10.6782C9.6601 10.5967 10.0643 10.4976 10.5831 10.4379C11.6182 10.3187 13.1157 10.3555 14.9145 11.0101C15.2794 11.143 15.6829 10.9548 15.8157 10.5899ZM9.01645 10.8112C9.01645 10.8112 9.01645 10.8112 9.01645 10.8112C9.01645 10.8112 9.01645 10.8112 9.01645 10.8112L9.01645 10.8112Z" fill="url(#paint4_linear_84_3622)"/>
<path fill-rule="evenodd" clip-rule="evenodd" d="M25.5959 16.8451C25.9478 16.681 26.1001 16.2626 25.936 15.9107L25.2987 16.2078C25.936 15.9107 25.9358 15.9104 25.9357 15.91L25.9353 15.9093L25.9346 15.9077L25.9327 15.9038C25.9313 15.9008 25.9296 15.8973 25.9276 15.8931C25.9235 15.8847 25.9182 15.8739 25.9115 15.8606C25.8981 15.8342 25.8794 15.7984 25.8551 15.7541C25.8063 15.6655 25.7348 15.543 25.6377 15.3941C25.4434 15.0965 25.1461 14.6929 24.7227 14.2458C23.8742 13.3496 22.5237 12.2832 20.4966 11.5454C20.1317 11.4126 19.7282 11.6007 19.5954 11.9656C19.4626 12.3305 19.6507 12.734 20.0156 12.8668C21.8144 13.5216 22.9853 14.4561 23.7016 15.2126C24.0606 15.5918 24.3066 15.9276 24.46 16.1627C24.5367 16.2802 24.5902 16.3723 24.6229 16.4319C24.6393 16.4617 24.6505 16.4832 24.6568 16.4957C24.66 16.502 24.6619 16.506 24.6627 16.5075C24.6628 16.5077 24.6628 16.5078 24.6629 16.5079C24.8279 16.8578 25.2449 17.0087 25.5959 16.8451Z" fill="url(#paint5_linear_84_3622)"/>
<path fill-rule="evenodd" clip-rule="evenodd" d="M40.3646 44.3899C39.215 46.2775 36.9107 47.1163 34.8168 46.4092L27.7179 44.0119C27.7179 44.0119 27.7179 44.0119 27.7179 44.0119C24.6001 42.959 22.13 40.546 21.0045 37.4538C21.0045 37.4537 21.0045 37.4537 21.0045 37.4537L19.7479 34.0014C19.6151 33.6365 19.2117 33.4484 18.8467 33.5812C18.4818 33.714 18.2937 34.1175 18.4265 34.4824L19.683 37.9347L19.683 37.9347C20.9547 41.4284 23.7455 44.1546 27.268 45.3442L27.268 45.3442L34.3668 47.7415C37.0839 48.6591 40.074 47.5707 41.5656 45.1213L45.4627 38.7219L44.8622 38.3562L45.4627 38.7219C47.3965 35.5464 47.7819 31.664 46.5104 28.1703L42.5477 17.2829C41.6458 14.805 38.906 13.5274 36.4281 14.4293L36.428 14.4293L33.2785 15.5756C32.9136 15.7085 32.7255 16.1119 32.8583 16.4768C32.9911 16.8418 33.3946 17.0299 33.7595 16.8971L36.909 15.7507C38.6571 15.1145 40.59 16.0158 41.2262 17.7638L45.1889 28.6513C46.3144 31.7436 45.9733 35.1799 44.2617 37.9905L40.3646 44.3899L40.9651 44.7556L40.3646 44.3899Z" fill="url(#paint6_linear_84_3622)"/>
<path fill-rule="evenodd" clip-rule="evenodd" d="M29.28 41.4694C29.5298 41.536 29.796 41.4601 29.9732 41.2718C31.1515 40.0193 32.8691 38.8845 34.9445 38.1291L34.704 37.4684L34.9445 38.1291C37.02 37.3737 39.0652 37.139 40.773 37.341C41.0298 37.3713 41.2825 37.2583 41.4311 37.0468C41.5796 36.8352 41.6001 36.5591 41.4844 36.3279C39.9572 33.2774 36.3554 31.7864 33.0711 32.9817L33.0711 32.9817C29.7868 34.1771 27.986 37.6346 28.7771 40.9531C28.8371 41.2046 29.0302 41.4029 29.28 41.4694ZM29.9984 39.3249C30.0206 37.1386 31.377 35.0948 33.552 34.3031L33.3116 33.6424L33.552 34.3031C35.7271 33.5115 38.0798 34.2053 39.5022 35.8658C37.9132 35.8737 36.1856 36.1809 34.4635 36.8076L34.4635 36.8076C32.7416 37.4344 31.2207 38.3096 29.9984 39.3249ZM33.3116 33.6424L33.3104 33.6393L33.3116 33.6424Z" fill="url(#paint7_linear_84_3622)"/>
<path fill-rule="evenodd" clip-rule="evenodd" d="M26.8264 30.9269C26.0524 31.4702 25.1582 31.553 24.4798 31.2941C24.117 31.1556 23.7107 31.3375 23.5722 31.7003C23.4338 32.0631 23.6156 32.4695 23.9785 32.6079C25.122 33.0443 26.5039 32.8714 27.6344 32.0778L27.6345 32.0778C28.7649 31.2841 29.397 30.0432 29.3752 28.8195C29.3683 28.4313 29.048 28.1221 28.6597 28.129C28.2715 28.1359 27.9623 28.4563 27.9692 28.8445C27.9821 29.5706 27.6004 30.3834 26.8265 30.9268" fill="url(#paint8_linear_84_3622)"/>
<path fill-rule="evenodd" clip-rule="evenodd" d="M33.2268 27.4183C33.9966 28.3697 35.2785 28.9141 36.6547 28.7954C38.031 28.6766 39.2006 27.9207 39.7961 26.8515C39.9851 26.5123 39.8632 26.0841 39.524 25.8951C39.1847 25.7061 38.7565 25.828 38.5676 26.1672C38.2142 26.8017 37.476 27.313 36.5338 27.3943L36.5338 27.3943C35.5917 27.4756 34.7768 27.0983 34.32 26.5338C34.0757 26.2319 33.633 26.1852 33.3311 26.4295C33.0292 26.6737 32.9825 27.1165 33.2268 27.4183Z" fill="url(#paint9_linear_84_3622)"/>
<path fill-rule="evenodd" clip-rule="evenodd" d="M32.1843 24.6651C32.3171 25.03 32.7206 25.2181 33.0855 25.0853C34.8843 24.4306 36.3818 24.3939 37.4169 24.5131C37.9357 24.5728 38.3399 24.6719 38.6086 24.7533C38.7429 24.7941 38.8431 24.8303 38.9064 24.8549C38.9381 24.8672 38.9606 24.8765 38.9734 24.882C38.9799 24.8848 38.9839 24.8866 38.9855 24.8873L38.985 24.887L38.9841 24.8866L38.9836 24.8864C38.9833 24.8862 38.983 24.8861 39.2667 24.2776L38.983 24.8861C38.984 24.8865 38.985 24.887 38.9859 24.8874C38.9864 24.8877 38.9864 24.8877 38.9861 24.8875L38.9855 24.8873C38.9857 24.8873 38.9858 24.8874 38.9859 24.8874C39.3373 25.0493 39.7537 24.8969 39.9174 24.546C40.0815 24.194 39.9292 23.7757 39.5773 23.6116L39.2801 24.2488C39.5773 23.6116 39.577 23.6114 39.5766 23.6113L39.5759 23.6109L39.5743 23.6102L39.5703 23.6084C39.5674 23.607 39.5638 23.6054 39.5595 23.6035C39.551 23.5997 39.54 23.5948 39.5263 23.589C39.4991 23.5774 39.4618 23.5619 39.4146 23.5437C39.3204 23.5071 39.1868 23.4592 39.0167 23.4076C38.6766 23.3045 38.1894 23.1864 37.5777 23.116C36.3516 22.9749 34.6316 23.0261 32.6046 23.7639C32.2397 23.8967 32.0515 24.3002 32.1843 24.6651Z" fill="url(#paint10_linear_84_3622)"/>
<defs>
<linearGradient id="paint0_linear_84_3622" x1="0.751526" y1="17.0261" x2="32.5689" y2="17.0261" gradientUnits="userSpaceOnUse">
<stop stop-color="#0CBAF1"/>
<stop offset="1" stop-color="#E95CE9"/>
</linearGradient>
<linearGradient id="paint1_linear_84_3622" x1="7.64795" y1="22.5547" x2="20.6148" y2="22.5547" gradientUnits="userSpaceOnUse">
<stop stop-color="#0CBAF1"/>
<stop offset="1" stop-color="#E95CE9"/>
</linearGradient>
<linearGradient id="paint2_linear_84_3622" x1="7.72601" y1="13.6026" x2="14.2337" y2="13.6026" gradientUnits="userSpaceOnUse">
<stop stop-color="#0CBAF1"/>
<stop offset="1" stop-color="#E95CE9"/>
</linearGradient>
<linearGradient id="paint3_linear_84_3622" x1="17.9283" y1="17.3165" x2="24.436" y2="17.3165" gradientUnits="userSpaceOnUse">
<stop stop-color="#0CBAF1"/>
<stop offset="1" stop-color="#E95CE9"/>
</linearGradient>
<linearGradient id="paint4_linear_84_3622" x1="8.0166" y1="10.0155" x2="15.8583" y2="10.0155" gradientUnits="userSpaceOnUse">
<stop stop-color="#0CBAF1"/>
<stop offset="1" stop-color="#E95CE9"/>
</linearGradient>
<linearGradient id="paint5_linear_84_3622" x1="19.5528" y1="14.207" x2="26.002" y2="14.207" gradientUnits="userSpaceOnUse">
<stop stop-color="#0CBAF1"/>
<stop offset="1" stop-color="#E95CE9"/>
</linearGradient>
<linearGradient id="paint6_linear_84_3622" x1="18.3839" y1="31.1022" x2="47.2485" y2="31.1022" gradientUnits="userSpaceOnUse">
<stop stop-color="#0CBAF1"/>
<stop offset="1" stop-color="#E95CE9"/>
</linearGradient>
<linearGradient id="paint7_linear_84_3622" x1="28.5919" y1="37.0313" x2="41.5587" y2="37.0313" gradientUnits="userSpaceOnUse">
<stop stop-color="#0CBAF1"/>
<stop offset="1" stop-color="#E95CE9"/>
</linearGradient>
<linearGradient id="paint8_linear_84_3622" x1="23.5258" y1="30.4854" x2="29.3758" y2="30.4854" gradientUnits="userSpaceOnUse">
<stop stop-color="#0CBAF1"/>
<stop offset="1" stop-color="#E95CE9"/>
</linearGradient>
<linearGradient id="paint9_linear_84_3622" x1="33.0703" y1="27.3088" x2="39.8851" y2="27.3088" gradientUnits="userSpaceOnUse">
<stop stop-color="#0CBAF1"/>
<stop offset="1" stop-color="#E95CE9"/>
</linearGradient>
<linearGradient id="paint10_linear_84_3622" x1="32.1417" y1="24.0907" x2="39.9834" y2="24.0907" gradientUnits="userSpaceOnUse">
<stop stop-color="#0CBAF1"/>
<stop offset="1" stop-color="#E95CE9"/>
</linearGradient>
</defs>
</svg>
