<svg width="48" height="49" viewBox="0 0 48 49" fill="none" xmlns="http://www.w3.org/2000/svg">
<g clip-path="url(#clip0_84_3463)">
<path d="M45.835 7.93945H36C35.6115 7.93945 35.2969 8.25403 35.2969 8.64258C35.2969 9.03113 35.6115 9.3457 36 9.3457H45.835C46.2535 9.3457 46.5938 9.68591 46.5938 10.1045V37.1807C46.5938 37.5992 46.2535 37.9395 45.835 37.9395H2.16504C1.74646 37.9395 1.40625 37.5992 1.40625 37.1807V10.1045C1.40625 9.68591 1.74646 9.3457 2.16504 9.3457H17.6133V10.752H3.51562C3.12708 10.752 2.8125 11.0665 2.8125 11.4551V30.0333C2.8125 30.4215 3.12708 30.7365 3.51562 30.7365C3.90417 30.7365 4.21875 30.4215 4.21875 30.0333V12.1582H17.6133V15.9302L14.603 17.3683C14.3628 17.4833 14.2031 17.7316 14.2031 18.0029V29.4697C14.2031 29.7407 14.3588 29.9875 14.603 30.1044L23.6968 34.4491C23.8938 34.5417 24.1161 34.537 24.3032 34.4491L29.4155 32.0065C29.766 31.8391 29.9143 31.4191 29.7469 31.069C29.5796 30.7185 29.1592 30.5702 28.8091 30.7375L24.7031 32.6993V22.7908L32.3906 19.118V29.0266L31.3462 29.5254C30.9957 29.6927 30.8474 30.1128 31.0148 30.4629C31.1821 30.8134 31.6022 30.9617 31.9523 30.7943L33.397 30.1044C33.6412 29.9875 33.7969 29.7407 33.7969 29.4697V18.0029C33.7969 17.7349 33.6409 17.4851 33.397 17.3683L30.3867 15.9302V12.1582H43.7812V35.127H4.21875V33.0333C4.21875 32.6448 3.90417 32.3302 3.51562 32.3302C3.12708 32.3302 2.8125 32.6448 2.8125 33.0333V35.8301C2.8125 36.2186 3.12708 36.5332 3.51562 36.5332H44.4844C44.8729 36.5332 45.1875 36.2186 45.1875 35.8301V11.4551C45.1875 11.0665 44.8729 10.752 44.4844 10.752H30.3867V9.3457H33C33.3885 9.3457 33.7031 9.03113 33.7031 8.64258C33.7031 8.25403 33.3885 7.93945 33 7.93945H30.3867V6.5332H36.6914C37.08 6.5332 37.3945 6.21863 37.3945 5.83008V4.16235C38.213 3.87195 38.8008 3.09045 38.8008 2.17383C38.8008 1.01074 37.8545 0.0644531 36.6914 0.0644531C35.5283 0.0644531 34.582 1.01074 34.582 2.17383C34.582 3.09045 35.1698 3.87195 35.9883 4.16235V5.12695H29.6836C29.295 5.12695 28.9805 5.44153 28.9805 5.83008V7.93945H24.7031V4.16235C25.5216 3.87195 26.1094 3.09045 26.1094 2.17383C26.1094 1.01074 25.1631 0.0644531 24 0.0644531C22.8369 0.0644531 21.8906 1.01074 21.8906 2.17383C21.8906 3.09045 22.4784 3.87195 23.2969 4.16235V7.93945H19.0195V5.83008C19.0195 5.44153 18.705 5.12695 18.3164 5.12695H12.0117V4.16235C12.8302 3.87195 13.418 3.09045 13.418 2.17383C13.418 1.01074 12.4717 0.0644531 11.3086 0.0644531C10.1455 0.0644531 9.19922 1.01074 9.19922 2.17383C9.19922 3.09045 9.78699 3.87195 10.6055 4.16235V5.83008C10.6055 6.21863 10.92 6.5332 11.3086 6.5332H17.6133V7.93945H2.16504C0.971191 7.93945 0 8.91064 0 10.1045V37.1807C0 38.3745 0.971191 39.3457 2.16504 39.3457H17.4089C17.1368 41.9249 15.4314 43.4312 14.8938 43.8457H11.9063C10.7432 43.8457 9.79688 44.792 9.79688 45.9551C9.79688 47.1182 10.7432 48.0645 11.9063 48.0645H36.0938C37.2568 48.0645 38.2031 47.1182 38.2031 45.9551C38.2031 44.792 37.2568 43.8457 36.0938 43.8457H33.108C32.5774 43.4326 30.8661 41.9128 30.5918 39.3457H45.835C47.0288 39.3457 48 38.3745 48 37.1807V10.1045C48 8.91064 47.0288 7.93945 45.835 7.93945ZM36.6914 1.4707C37.0792 1.4707 37.3945 1.78601 37.3945 2.17383C37.3945 2.56165 37.0792 2.87695 36.6914 2.87695C36.3036 2.87695 35.9883 2.56165 35.9883 2.17383C35.9883 1.78601 36.3036 1.4707 36.6914 1.4707ZM24 1.4707C24.3878 1.4707 24.7031 1.78601 24.7031 2.17383C24.7031 2.56165 24.3878 2.87695 24 2.87695C23.6122 2.87695 23.2969 2.56165 23.2969 2.17383C23.2969 1.78601 23.6122 1.4707 24 1.4707ZM11.3086 1.4707C11.6964 1.4707 12.0117 1.78601 12.0117 2.17383C12.0117 2.56165 11.6964 2.87695 11.3086 2.87695C10.9208 2.87695 10.6055 2.56165 10.6055 2.17383C10.6055 1.78601 10.9208 1.4707 11.3086 1.4707ZM19.0195 12.1582H23.2969V13.2147L19.0195 15.2585V12.1582ZM31.4626 18.0029L24 21.568L16.5374 18.0029L24 14.4375L31.4626 18.0029ZM15.6094 19.118L23.2969 22.7908V32.6993L15.6094 29.0266V19.118ZM28.9805 15.2585L24.7031 13.2147V12.1582H28.9805V15.2585ZM28.9805 9.3457V10.752H24.7031V9.3457H28.9805ZM23.2969 9.3457V10.752H19.0195V9.3457H23.2969ZM36.7969 45.9551C36.7969 46.3429 36.4816 46.6582 36.0938 46.6582H11.9063C11.5184 46.6582 11.2031 46.3429 11.2031 45.9551C11.2031 45.5673 11.5184 45.252 11.9063 45.252H36.0938C36.4816 45.252 36.7969 45.5673 36.7969 45.9551ZM31.0913 43.8457H16.9087C17.733 42.8829 18.6475 41.3826 18.8229 39.3457H29.1771C29.3525 41.3826 30.267 42.8829 31.0913 43.8457Z" fill="url(#paint0_linear_84_3463)"/>
</g>
<defs>
<linearGradient id="paint0_linear_84_3463" x1="0" y1="24.0645" x2="48" y2="24.0645" gradientUnits="userSpaceOnUse">
<stop stop-color="#0CBAF1"/>
<stop offset="1" stop-color="#E95CE9"/>
</linearGradient>
<clipPath id="clip0_84_3463">
<rect width="48" height="48" fill="white" transform="translate(0 0.0644531)"/>
</clipPath>
</defs>
</svg>
