<svg width="48" height="49" viewBox="0 0 48 49" fill="none" xmlns="http://www.w3.org/2000/svg">
<mask id="mask0_84_3546" style="mask-type:luminance" maskUnits="userSpaceOnUse" x="0" y="0" width="48" height="49">
<path d="M0 0.0644569H48V48.0645H0V0.0644569Z" fill="white"/>
</mask>
<g mask="url(#mask0_84_3546)">
<path fill-rule="evenodd" clip-rule="evenodd" d="M26.0658 28.0633C24.6886 28.0661 23.3115 28.0661 21.9343 28.0633C21.546 28.0625 21.2305 28.3767 21.2297 28.765C21.2289 29.1533 21.5431 29.4688 21.9314 29.4696C23.3105 29.4724 24.6896 29.4724 26.0687 29.4696C26.457 29.4688 26.7712 29.1533 26.7704 28.765C26.7696 28.3767 26.4541 28.0625 26.0658 28.0633Z" fill="url(#paint0_linear_84_3546)"/>
<path fill-rule="evenodd" clip-rule="evenodd" d="M33.9835 37.3533C34.1868 37.0224 34.0834 36.5894 33.7525 36.3862C31.8732 35.2316 30.4573 33.3389 29.9752 31.0096C29.8965 30.6294 29.5244 30.3849 29.1441 30.4636C28.7639 30.5423 28.5194 30.9144 28.5981 31.2946C29.1623 34.0203 30.8214 36.2358 33.0164 37.5843C33.3473 37.7876 33.7803 37.6842 33.9835 37.3533Z" fill="url(#paint1_linear_84_3546)"/>
<path fill-rule="evenodd" clip-rule="evenodd" d="M7.61545 38.7505C12.9525 40.0391 18.2939 36.6525 19.4029 31.2943C19.4817 30.914 19.2372 30.5419 18.8569 30.4632C18.4767 30.3845 18.1046 30.629 18.0259 31.0092C17.0781 35.5881 12.5108 38.4864 7.94452 37.3833L7.94227 37.3827C7.88466 37.369 7.82777 37.3553 7.76944 37.3412L7.76908 37.3411C3.48177 36.3062 0.743731 32.1005 1.5455 27.7668C2.22372 24.1013 3.14475 20.3946 4.23927 16.6519C5.24116 13.2284 8.33105 10.8404 11.8984 10.7185L11.8986 10.7185C19.9666 10.4406 28.0335 10.4406 36.1015 10.7185L36.1017 10.7185C39.669 10.8404 42.7589 13.2284 43.7608 16.6519C44.8553 20.3946 45.7764 24.1013 46.4546 27.7668C47.2563 32.1005 44.5183 36.3062 40.231 37.3411L40.2306 37.3412C40.2025 37.348 40.1739 37.3548 40.1447 37.3618L40.1442 37.3619L40.1431 37.3622C40.1143 37.3691 40.0849 37.3762 40.0555 37.3833M7.61545 38.7505C7.55566 38.7362 7.497 38.7221 7.43973 38.7082L7.43912 38.7081C7.439 38.708 7.43888 38.708 7.43876 38.708C2.42816 37.4983 -0.775497 32.5822 0.162713 27.511L0.162716 27.511C0.85137 23.7891 1.78471 20.0352 2.88956 16.2572L2.88959 16.2571C4.06273 12.2482 7.67959 9.45568 11.8502 9.3131C19.9504 9.03411 28.0497 9.03411 36.1499 9.3131C40.3205 9.45568 43.9373 12.2482 45.1105 16.2571L45.1105 16.2572C46.2154 20.0352 47.1487 23.7891 47.8374 27.511C48.7756 32.5822 45.5719 37.4983 40.5613 38.708C40.5315 38.7152 40.5016 38.7224 40.4724 38.7294C40.443 38.7364 40.4143 38.7433 40.386 38.7502L40.3858 38.7502C38.8185 39.1289 37.2502 39.1039 35.7879 38.7439C35.4108 38.651 35.1804 38.2701 35.2732 37.893C35.3661 37.516 35.747 37.2856 36.1241 37.3784C37.373 37.6859 38.7126 37.7077 40.0553 37.3833" fill="url(#paint2_linear_84_3546)"/>
<path fill-rule="evenodd" clip-rule="evenodd" d="M18.814 30.4502C17.4182 30.4502 16.2866 29.3187 16.2866 27.9229C16.2866 26.5271 17.4182 25.3956 18.814 25.3956C20.2098 25.3956 21.3413 26.5271 21.3413 27.9229C21.3413 29.3187 20.2098 30.4502 18.814 30.4502ZM14.8804 27.9229C14.8804 30.0954 16.6416 31.8564 18.814 31.8564C20.9864 31.8564 22.7476 30.0954 22.7476 27.9229C22.7476 25.7504 20.9864 23.9893 18.814 23.9893C16.6416 23.9893 14.8804 25.7504 14.8804 27.9229Z" fill="url(#paint3_linear_84_3546)"/>
<path fill-rule="evenodd" clip-rule="evenodd" d="M29.1862 30.4502C27.7904 30.4502 26.6588 29.3187 26.6588 27.9229C26.6588 26.5271 27.7904 25.3956 29.1862 25.3956C30.582 25.3956 31.7135 26.5271 31.7135 27.9229C31.7135 29.3187 30.582 30.4502 29.1862 30.4502ZM25.2526 27.9229C25.2526 30.0954 27.0138 31.8564 29.1862 31.8564C31.3586 31.8564 33.1198 30.0954 33.1198 27.9229C33.1198 25.7504 31.3586 23.9893 29.1862 23.9893C27.0138 23.9893 25.2526 25.7504 25.2526 27.9229Z" fill="url(#paint4_linear_84_3546)"/>
<path fill-rule="evenodd" clip-rule="evenodd" d="M10.262 26.8311L10.3038 26.8311C11.8318 26.8303 13.0733 25.6106 13.1145 24.0883L13.1145 24.0882C13.1157 24.0436 13.1169 23.9989 13.1181 23.9542C13.1627 23.9531 13.2074 23.9519 13.2521 23.9507L13.2522 23.9507C14.7745 23.9094 15.9943 22.668 15.9949 21.1399V21.0981C15.9943 19.57 14.7745 18.3286 13.2522 18.2873L13.2521 18.2873C13.2074 18.2861 13.1628 18.2849 13.1181 18.2838C13.1169 18.2391 13.1158 18.1944 13.1145 18.1497L13.1145 18.1496C13.0733 16.6273 11.8318 15.4076 10.3038 15.4069H10.262C8.73404 15.4076 7.49244 16.6273 7.45115 18.1496L7.45115 18.1497C7.44994 18.1944 7.44876 18.2391 7.44761 18.2838C7.40297 18.2849 7.35834 18.2861 7.31371 18.2873L7.31362 18.2873C5.79126 18.3286 4.57155 19.57 4.5708 21.0981V21.1399C4.57155 22.668 5.79126 23.9094 7.31362 23.9507L7.31371 23.9507C7.35834 23.9519 7.40298 23.9531 7.44761 23.9542C7.44877 23.9989 7.44995 24.0436 7.45115 24.0882L7.45115 24.0883C7.49244 25.6107 8.73404 26.8303 10.262 26.8311ZM10.3031 25.4248H10.2627C10.2627 25.4248 10.2626 25.4248 10.2626 25.4248C10.2625 25.4248 10.2624 25.4248 10.2624 25.4248C9.50115 25.4242 8.87771 24.8163 8.85689 24.0503M10.3034 25.4248C10.3034 25.4248 10.3033 25.4248 10.3032 25.4248C10.3032 25.4248 10.3031 25.4248 10.3031 25.4248M10.3034 25.4248C11.0646 25.4242 11.688 24.8163 11.7088 24.0503L10.3034 25.4248ZM8.85689 24.0502C8.84971 23.7843 8.84347 23.5185 8.83826 23.2529C8.83085 22.8755 8.52673 22.5712 8.14931 22.5637C7.88342 22.5584 7.61753 22.5521 7.35174 22.545M11.7088 24.0502C11.716 23.7843 11.7222 23.5184 11.7275 23.2526L11.7088 24.0502ZM13.2141 22.545C12.9482 22.5521 12.6823 22.5584 12.4165 22.5637C12.0392 22.5712 11.7351 22.8753 11.7275 23.2526M13.2142 22.545C13.9803 22.5241 14.5882 21.9007 14.5886 21.1396C14.5886 21.1395 14.5886 21.1394 14.5886 21.1393V21.0987M5.97705 21.1394C5.97705 21.1393 5.97705 21.1393 5.97705 21.1392V21.0988C5.97705 21.0987 5.97705 21.0987 5.97705 21.0986C5.97705 21.0986 5.97705 21.0985 5.97705 21.0984C5.97761 20.3373 6.58553 19.7139 7.35165 19.693C7.61747 19.6859 7.88331 19.6796 8.14906 19.6744C8.52659 19.667 8.83085 19.3627 8.83826 18.9852C8.84347 18.7194 8.84971 18.4536 8.85689 18.1877M5.97705 21.1394C5.97705 21.1394 5.97705 21.1395 5.97705 21.1396V21.1394ZM5.97705 21.1396C5.97761 21.9007 6.58553 22.5241 7.35165 22.545L5.97705 21.1396ZM14.5886 21.0984C14.5882 20.3373 13.9803 19.7139 13.2142 19.693L14.5886 21.0984ZM13.2141 19.693C12.9482 19.6859 12.6824 19.6796 12.4167 19.6744C12.0393 19.667 11.7351 19.3629 11.7275 18.9855C11.7222 18.7195 11.716 18.4536 11.7088 18.1877M8.85689 18.1876C8.87772 17.4215 9.50134 16.8135 10.2627 16.8131H10.3031C11.0644 16.8135 11.688 17.4215 11.7088 18.1876" fill="url(#paint5_linear_84_3546)"/>
<path fill-rule="evenodd" clip-rule="evenodd" d="M40.4572 19.9228C39.9467 20.4333 39.119 20.4333 38.6086 19.9228C38.0981 19.4123 38.0981 18.5847 38.6086 18.0742C39.119 17.5637 39.9467 17.5637 40.4572 18.0742C40.9676 18.5847 40.9676 19.4123 40.4572 19.9228ZM37.6142 20.9172C38.6738 21.9768 40.3919 21.9768 41.4515 20.9172C42.5112 19.8575 42.5112 18.1395 41.4515 17.0798C40.3919 16.0202 38.6738 16.0202 37.6142 17.0798C36.5545 18.1395 36.5545 19.8575 37.6142 20.9172Z" fill="url(#paint6_linear_84_3546)"/>
<path fill-rule="evenodd" clip-rule="evenodd" d="M36.2164 24.164C35.706 24.6745 34.8783 24.6745 34.3678 24.164C33.8574 23.6535 33.8574 22.8259 34.3678 22.3154C34.8783 21.8049 35.706 21.8049 36.2164 22.3154C36.7269 22.8259 36.7269 23.6535 36.2164 24.164ZM33.3735 25.1584C34.4331 26.218 36.1512 26.218 37.2108 25.1584C38.2705 24.0987 38.2705 22.3807 37.2108 21.321C36.1512 20.2614 34.4331 20.2614 33.3735 21.321C32.3138 22.3807 32.3138 24.0987 33.3735 25.1584Z" fill="url(#paint7_linear_84_3546)"/>
<path fill-rule="evenodd" clip-rule="evenodd" d="M20.0294 19.8221C20.0294 20.9268 20.9249 21.8223 22.0296 21.8223H26.1901C27.2948 21.8223 28.1903 20.9268 28.1903 19.8221C28.1903 18.7174 27.2948 17.8219 26.1901 17.8219H22.0296C20.9249 17.8219 20.0294 18.7174 20.0294 19.8221ZM22.0296 20.416C21.7016 20.416 21.4357 20.1501 21.4357 19.8221C21.4357 19.494 21.7016 19.2281 22.0296 19.2281H26.1901C26.5181 19.2281 26.784 19.494 26.784 19.8221C26.784 20.1501 26.5181 20.416 26.1901 20.416H22.0296Z" fill="url(#paint8_linear_84_3546)"/>
<path fill-rule="evenodd" clip-rule="evenodd" d="M16.4456 14.4984C16.6281 14.1556 16.4983 13.7298 16.1555 13.5473C15.4411 13.1667 14.9353 12.4426 14.8575 11.5855C14.8094 11.0362 14.7824 10.4887 14.7797 9.94371C14.7777 9.55539 14.4614 9.24216 14.073 9.24409C13.6847 9.24602 13.3715 9.56238 13.3734 9.9507C13.3763 10.5379 13.4055 11.1244 13.4567 11.7092L13.4569 11.7111C13.5782 13.053 14.3716 14.1904 15.4944 14.7884C15.8372 14.971 16.263 14.8411 16.4456 14.4984Z" fill="url(#paint9_linear_84_3546)"/>
<path fill-rule="evenodd" clip-rule="evenodd" d="M30.7891 13.831C26.7301 13.9898 22.6704 14.0066 18.6107 13.8796C18.2226 13.8675 17.8981 14.1723 17.886 14.5604C17.8738 14.9485 18.1786 15.273 18.5668 15.2852C22.6595 15.4132 26.7522 15.3962 30.8439 15.2362M33.1424 11.5858C33.031 12.8234 32.0258 13.783 30.7893 13.831L30.7891 13.831M33.1424 11.5858C33.1905 11.0365 33.2176 10.4889 33.2203 9.94389C33.2222 9.55557 33.5386 9.24234 33.9269 9.24427C34.3152 9.2462 34.6285 9.56255 34.6266 9.95088C34.6236 10.538 34.5945 11.1246 34.5433 11.7094L34.5431 11.7109C34.3693 13.6473 32.7928 15.1604 30.844 15.2362" fill="url(#paint10_linear_84_3546)"/>
</g>
<defs>
<linearGradient id="paint0_linear_84_3546" x1="21.2297" y1="28.7675" x2="26.7704" y2="28.7675" gradientUnits="userSpaceOnUse">
<stop stop-color="#0CBAF1"/>
<stop offset="1" stop-color="#E95CE9"/>
</linearGradient>
<linearGradient id="paint1_linear_84_3546" x1="28.5834" y1="34.0687" x2="34.0877" y2="34.0687" gradientUnits="userSpaceOnUse">
<stop stop-color="#0CBAF1"/>
<stop offset="1" stop-color="#E95CE9"/>
</linearGradient>
<linearGradient id="paint2_linear_84_3546" x1="-0.000244141" y1="24.0641" x2="48.0003" y2="24.0641" gradientUnits="userSpaceOnUse">
<stop stop-color="#0CBAF1"/>
<stop offset="1" stop-color="#E95CE9"/>
</linearGradient>
<linearGradient id="paint3_linear_84_3546" x1="14.8804" y1="27.9229" x2="22.7476" y2="27.9229" gradientUnits="userSpaceOnUse">
<stop stop-color="#0CBAF1"/>
<stop offset="1" stop-color="#E95CE9"/>
</linearGradient>
<linearGradient id="paint4_linear_84_3546" x1="25.2526" y1="27.9229" x2="33.1198" y2="27.9229" gradientUnits="userSpaceOnUse">
<stop stop-color="#0CBAF1"/>
<stop offset="1" stop-color="#E95CE9"/>
</linearGradient>
<linearGradient id="paint5_linear_84_3546" x1="4.5708" y1="21.119" x2="15.9949" y2="21.119" gradientUnits="userSpaceOnUse">
<stop stop-color="#0CBAF1"/>
<stop offset="1" stop-color="#E95CE9"/>
</linearGradient>
<linearGradient id="paint6_linear_84_3546" x1="36.8195" y1="18.9985" x2="42.2463" y2="18.9985" gradientUnits="userSpaceOnUse">
<stop stop-color="#0CBAF1"/>
<stop offset="1" stop-color="#E95CE9"/>
</linearGradient>
<linearGradient id="paint7_linear_84_3546" x1="32.5787" y1="23.2397" x2="38.0055" y2="23.2397" gradientUnits="userSpaceOnUse">
<stop stop-color="#0CBAF1"/>
<stop offset="1" stop-color="#E95CE9"/>
</linearGradient>
<linearGradient id="paint8_linear_84_3546" x1="20.0294" y1="19.8221" x2="28.1903" y2="19.8221" gradientUnits="userSpaceOnUse">
<stop stop-color="#0CBAF1"/>
<stop offset="1" stop-color="#E95CE9"/>
</linearGradient>
<linearGradient id="paint9_linear_84_3546" x1="13.3734" y1="12.0576" x2="16.5282" y2="12.0576" gradientUnits="userSpaceOnUse">
<stop stop-color="#0CBAF1"/>
<stop offset="1" stop-color="#E95CE9"/>
</linearGradient>
<linearGradient id="paint10_linear_84_3546" x1="17.8856" y1="12.3072" x2="34.6266" y2="12.3072" gradientUnits="userSpaceOnUse">
<stop stop-color="#0CBAF1"/>
<stop offset="1" stop-color="#E95CE9"/>
</linearGradient>
</defs>
</svg>
