<svg width="49" height="8" viewBox="0 0 49 8" fill="none" xmlns="http://www.w3.org/2000/svg">
<mask id="mask0_10_213" style="mask-type:luminance" maskUnits="userSpaceOnUse" x="0" y="-1" width="50" height="9">
<path d="M0.702515 3.80044L48.5859 -0.847656L49.0004 2.69724L1.11706 7.34534L0.702515 3.80044Z" fill="white"/>
</mask>
<g mask="url(#mask0_10_213)">
<mask id="mask1_10_213" style="mask-type:luminance" maskUnits="userSpaceOnUse" x="0" y="-1" width="50" height="9">
<path d="M0.702515 3.80044L48.5859 -0.847656L49.0004 2.69724L1.11706 7.34534L0.702515 3.80044Z" fill="white"/>
</mask>
<g mask="url(#mask1_10_213)">
<path d="M44.5174 1.85994C44.0081 1.88458 43.4987 1.90787 42.9897 1.93454C41.8305 1.99531 40.6706 2.04594 39.5129 2.12257C38.6445 2.1803 37.7813 2.28697 36.92 2.40175C36.6907 2.43213 36.454 2.41728 36.2261 2.45272C34.0719 2.78625 31.8869 2.88887 29.7264 3.17615C28.7494 3.30646 27.7648 3.38241 26.7919 3.5377C24.6292 3.88304 22.4423 4.08829 20.274 4.40527C18.8288 4.61659 17.3833 4.8269 15.9374 5.0362C14.4681 5.2482 12.9981 5.45379 11.5292 5.66747C10.3478 5.83964 9.1668 6.01383 7.98799 6.19882C7.4034 6.29098 6.8114 6.30819 6.22385 6.36997C5.15025 6.48171 4.08406 6.64611 3.00675 6.73185C2.8456 6.75852 2.68778 6.74738 2.53293 6.69877C2.36511 6.63598 2.16654 6.70215 1.98131 6.7089L1.04626 6.74131C1.26928 6.64746 1.50379 6.60121 1.7494 6.60189C1.97057 6.5742 2.13172 6.52627 2.13617 6.28996C2.13654 6.26532 2.1721 6.24135 2.21804 6.18363L1.07887 6.29435C1.25558 6.15291 1.30596 6.14008 1.84091 6.08911C2.0969 6.08067 2.34844 6.04421 2.5948 5.98007C2.84301 5.89905 3.04528 5.72891 3.33535 5.69482C3.23792 5.62122 3.15234 5.65464 3.02527 5.63C3.40315 5.55979 3.73508 5.49835 4.06702 5.43623C4.12184 5.4261 4.18334 5.43049 4.21779 5.37581C4.26558 5.30019 4.01811 5.16651 4.28929 5.12431C4.40636 5.10642 4.41006 4.92413 4.54862 4.88328C4.61975 4.86269 4.67309 4.80901 4.64012 4.73812C4.60382 4.65812 4.51861 4.69795 4.45637 4.70504C4.00774 4.75703 3.55948 4.81205 3.11085 4.86741C2.94414 4.90218 2.78225 4.88834 2.62592 4.82555C2.78522 4.79922 2.94488 4.77424 3.10381 4.74589C3.27571 4.71517 3.44427 4.67736 3.61579 4.64866C4.42785 4.51566 5.23953 4.3813 6.05269 4.25404C7.40525 4.04136 8.75855 3.83645 10.1089 3.62648C11.1165 3.46984 12.1205 3.2943 13.1311 3.15556C13.8535 3.05564 14.5737 2.93782 15.2942 2.82845C16.037 2.7157 16.7791 2.58708 17.523 2.47906C18.2898 2.36799 19.0578 2.25119 19.8265 2.14452C20.6174 2.03447 21.4095 1.93421 22.1997 1.82112C23.5889 1.62262 24.9855 1.48523 26.38 1.33298C27.9374 1.16419 29.497 1.00992 31.0574 0.863073C32.3174 0.744246 33.5795 0.644323 34.8406 0.538999C35.6952 0.467771 36.5529 0.417472 37.4086 0.380676C39.0787 0.308772 40.7465 0.200409 42.4177 0.143021C44.3103 0.078544 46.2038 0.058627 48.0968 0.010691C48.2958 0.00528981 48.4921 0.023519 48.6859 0.0657161C48.4003 0.0933975 48.115 0.13627 47.8283 0.146059C47.2251 0.165976 46.618 0.131544 46.0182 0.187244C45.2306 0.260161 44.4382 0.179142 43.6557 0.276702C43.219 0.332065 42.7796 0.360421 42.3384 0.362109C42.3154 0.362109 42.2847 0.358058 42.2706 0.36886C41.9405 0.639597 41.5215 0.494777 41.1492 0.566343C40.7187 0.650737 40.2838 0.708126 39.8448 0.739183C38.433 0.836067 37.0215 0.93734 35.6111 1.05515C33.91 1.19727 32.2077 1.33231 30.5136 1.53451C30.4158 1.54633 30.3009 1.52709 30.2128 1.6314C30.3135 1.71039 30.431 1.67663 30.5321 1.67022C31.8013 1.59359 33.0701 1.51358 34.339 1.43054C34.6746 1.40894 35.0117 1.39408 35.3452 1.35627C35.7734 1.32623 36.1998 1.33737 36.6255 1.39003C36.7407 1.40083 36.8566 1.40286 36.9726 1.39577C38.5585 1.27424 40.1508 1.2334 41.7382 1.13786C42.0961 1.09499 42.4551 1.08554 42.8152 1.1095C43.1967 1.15879 43.5935 1.11052 43.9654 1.28505C44.2285 1.39138 44.5019 1.42413 44.786 1.38328C44.9212 1.36404 45.0546 1.37214 45.1858 1.40759C45.0579 1.48422 44.9179 1.51595 44.7656 1.50278C44.6956 1.49839 44.6282 1.50785 44.5626 1.53114C44.3233 1.59393 44.3166 1.626 44.4952 1.80086C44.5089 1.81403 44.5078 1.84002 44.5141 1.8596L44.5174 1.85994ZM17.3911 5.16009C17.2888 5.11013 17.1799 5.07941 17.0643 5.06861C16.9487 5.05747 16.8354 5.06692 16.7239 5.09663C16.4531 5.1557 16.18 5.20128 15.904 5.23267C14.8771 5.34509 13.8609 5.51995 12.8392 5.66308C10.1637 6.03847 7.49157 6.43411 4.80646 6.7511C4.74237 6.75852 4.66235 6.74536 4.6316 6.80612C4.64049 6.83279 4.65457 6.85676 4.67346 6.8787C4.69273 6.9003 4.71532 6.9182 4.742 6.93204C4.76867 6.94554 4.79683 6.95432 4.8272 6.95837C4.85758 6.96208 4.88759 6.96073 4.91723 6.95432C5.29547 6.89963 5.6789 6.87296 6.05825 6.82266C8.19434 6.53842 10.3186 6.18059 12.4628 5.94597C12.5662 5.93483 12.6677 5.9085 12.7707 5.89466C13.5716 5.79136 14.3592 5.61954 15.1609 5.51826C15.8162 5.43556 16.4686 5.33361 17.1217 5.23639C17.2177 5.23335 17.304 5.20533 17.3803 5.15233L17.3911 5.16009ZM15.7225 5.3488C15.6899 5.37412 15.6525 5.38897 15.6099 5.39336C15.5677 5.39741 15.5273 5.39066 15.4895 5.37243C15.5636 5.33563 15.6414 5.32787 15.7225 5.3488ZM17.3803 5.15233C17.4581 5.179 17.5374 5.18204 17.6178 5.16178C18.1309 5.08414 18.6447 5.00717 19.1593 4.93797C20.3859 4.77289 21.6129 4.61052 22.8402 4.45017C23.1599 4.40797 23.48 4.36645 23.8086 4.32358C23.7141 4.28239 23.6148 4.26113 23.51 4.25978C23.4055 4.25809 23.3055 4.27699 23.2099 4.31581C22.9717 4.40257 22.6857 4.37725 22.4216 4.41135C22.0522 4.43464 21.6869 4.48393 21.3261 4.55954C21.0475 4.64056 20.7645 4.65812 20.4766 4.61254L21.0094 4.53119C20.4092 4.57372 19.8132 4.64495 19.2215 4.74555C18.711 4.80597 18.202 4.88936 17.6908 4.95316C17.5985 4.96362 17.5085 4.98253 17.4207 5.0092C17.3314 5.03857 17.3403 5.09933 17.39 5.16009L17.3803 5.15233ZM18.8096 4.86978C19.0274 4.7945 19.2526 4.76749 19.4846 4.78977C19.2649 4.8529 19.04 4.87957 18.8099 4.86978H18.8096ZM36.3154 2.78355L38.6408 2.55805L38.6386 2.53712L36.3221 2.76195L36.3154 2.78355ZM45.5888 1.74989C45.631 1.84103 45.7188 1.82753 45.797 1.81774C46.0163 1.80795 46.233 1.77993 46.4464 1.73369L45.5877 1.74989H45.5888ZM23.0302 4.25505L22.253 4.33033L22.2563 4.35801L23.0336 4.28239L23.0302 4.25505ZM45.5877 1.74989C45.2287 1.78365 44.8597 1.72862 44.5141 1.86061C44.516 1.86028 44.5174 1.8596 44.5189 1.85893C44.8816 1.86939 45.2384 1.83293 45.5896 1.74989H45.5877ZM34.8291 2.92229L35.2966 2.87706L35.2944 2.86086L34.8202 2.90677L34.8291 2.92229ZM30.6947 3.31962L30.2243 3.3652L30.2265 3.38444L30.6936 3.3392L30.6947 3.31962ZM25.8413 3.90566C25.6487 3.93401 25.5086 3.89587 25.3849 3.97148C25.5453 3.99849 25.6976 3.97655 25.8413 3.90566ZM31.12 3.29093L31.5235 3.25177C31.3857 3.23489 31.2512 3.24772 31.12 3.29093ZM25.625 4.08086L26.0165 4.04271C25.8861 4.03022 25.7457 3.95292 25.625 4.08086ZM32.9583 3.08332C32.8223 3.08163 32.6945 3.10999 32.5748 3.16839C32.7319 3.13396 32.8323 3.15826 32.9583 3.08332ZM35.6626 2.84668C35.7438 2.85714 35.8208 2.84533 35.8938 2.81123C35.8131 2.81461 35.7312 2.79537 35.6634 2.84668H35.6626ZM24.6792 4.06027C24.7155 4.05689 24.7155 4.0363 24.6673 4.01874L24.3317 4.07309C24.4973 4.06769 24.5888 4.06803 24.6792 4.06027ZM24.5284 4.19057C24.6584 4.20272 24.7833 4.18382 24.9022 4.1342C24.7481 4.14871 24.6558 4.09571 24.5284 4.19057ZM29.0051 3.54884C28.9413 3.53432 28.881 3.54107 28.8235 3.5701C28.8884 3.57382 28.9488 3.58867 29.0051 3.54884ZM27.0787 3.74902L27.2446 3.73282L27.079 3.72674L27.0787 3.74902ZM32.1551 3.18324C32.1807 3.19337 32.2077 3.19674 32.2355 3.19337C32.2633 3.18999 32.2881 3.18054 32.3103 3.16434C32.2525 3.15759 32.1966 3.13868 32.1544 3.18324H32.1551ZM29.8945 3.40267C29.8723 3.40064 29.8505 3.4003 29.8282 3.40199C29.8127 3.4057 29.7979 3.41178 29.7841 3.41988L29.8512 3.42393C29.8656 3.41651 29.8797 3.40908 29.8942 3.40233L29.8945 3.40267Z" fill="url(#paint0_linear_10_213)"/>
</g>
</g>
<defs>
<linearGradient id="paint0_linear_10_213" x1="1.04626" y1="3.48509" x2="48.6859" y2="3.48509" gradientUnits="userSpaceOnUse">
<stop stop-color="#0CBAF1"/>
<stop offset="1" stop-color="#E95CE9"/>
</linearGradient>
</defs>
</svg>
